<svg width="528" height="345" viewBox="0 0 528 345" fill="none" xmlns="http://www.w3.org/2000/svg">
<path d="M49.6577 168.918C57.2153 168.918 63.2092 169.83 67.6395 171.655C72.0698 173.479 75.0668 176.563 76.6304 180.906C78.2809 185.163 78.5415 190.983 77.4122 198.367C76.3698 206.011 74.6324 211.875 72.2001 215.958C69.7678 220.04 66.3365 222.82 61.9062 224.297C57.4759 225.774 51.6991 226.512 44.5759 226.512C40.9274 226.512 37.3223 226.382 33.7607 226.121C30.286 225.774 27.0284 225.383 23.988 224.948C21.0344 224.514 18.4718 224.08 16.3001 223.645C14.1284 223.124 12.6516 222.646 11.8698 222.212L12.6516 213.742C17.6031 213.742 22.7284 213.742 28.0274 213.742C33.4132 213.742 38.5819 213.742 43.5334 213.742C47.6163 213.742 50.787 213.308 53.0456 212.439C55.391 211.484 57.2153 209.833 58.5183 207.488C59.8213 205.056 60.7769 201.581 61.3849 197.064C61.993 192.981 61.993 189.854 61.3849 187.682C60.7769 185.423 59.4738 183.86 57.4759 182.991C55.5647 182.122 52.7849 181.688 49.1365 181.688C41.492 181.688 34.89 181.731 29.3304 181.818C23.8577 181.905 20.1658 182.079 18.2546 182.339L17.4728 170.091C20.9476 169.743 24.2052 169.483 27.2456 169.309C30.286 169.135 33.5435 169.048 37.0183 169.048C40.493 168.962 44.7062 168.918 49.6577 168.918ZM33.7607 170.091L21.1213 260H4.83343L17.4728 170.091H33.7607ZM110.713 168.788L100.549 241.106C100.115 243.625 100.375 245.449 101.331 246.579C102.373 247.621 104.285 248.142 107.064 248.142H113.189L113.84 259.348C112.885 259.783 111.538 260.13 109.801 260.391C108.063 260.738 106.326 260.956 104.589 261.042C102.851 261.216 101.418 261.303 100.289 261.303C94.7289 261.303 90.5158 259.826 87.6492 256.873C84.7825 253.832 83.6966 249.619 84.3916 244.233L94.9461 168.788H110.713ZM160.43 194.458C167.813 194.458 173.503 195.283 177.499 196.933C181.582 198.497 184.318 200.886 185.708 204.1C187.098 207.227 187.402 211.136 186.62 215.827C185.925 219.91 184.579 223.124 182.581 225.47C180.67 227.815 177.977 229.596 174.502 230.812C171.114 231.941 166.771 232.723 161.472 233.158L129.417 235.894L130.851 226.252L159.257 223.515C161.863 223.255 163.948 222.864 165.511 222.342C167.162 221.734 168.421 220.822 169.29 219.606C170.246 218.39 170.897 216.653 171.245 214.394C171.679 211.875 171.505 210.007 170.723 208.791C169.942 207.575 168.639 206.836 166.814 206.576C164.99 206.228 162.558 206.055 159.517 206.055C156.564 206.055 154.045 206.359 151.96 206.967C149.875 207.488 148.138 208.487 146.748 209.964C145.358 211.44 144.185 213.525 143.23 216.218C142.361 218.824 141.579 222.299 140.884 226.642C139.928 232.897 139.798 237.631 140.493 240.845C141.275 243.973 142.839 246.101 145.184 247.23C147.53 248.273 150.744 248.794 154.826 248.794C156.998 248.794 159.517 248.751 162.384 248.664C165.251 248.49 168.117 248.316 170.984 248.142C173.938 247.882 176.631 247.621 179.063 247.361L180.105 257.394C177.76 258.436 174.937 259.262 171.636 259.87C168.421 260.478 165.164 260.912 161.863 261.173C158.649 261.433 155.608 261.564 152.742 261.564C144.75 261.564 138.495 260.304 133.978 257.785C129.548 255.266 126.594 251.443 125.117 246.318C123.641 241.106 123.38 234.591 124.336 226.773C125.204 220.344 126.507 215.045 128.245 210.876C130.069 206.619 132.414 203.318 135.281 200.973C138.148 198.54 141.666 196.846 145.836 195.891C150.005 194.935 154.87 194.458 160.43 194.458ZM219.556 196.021L210.695 260H194.928L203.919 196.021H219.556ZM218.643 168.267C220.381 168.267 221.597 168.744 222.292 169.7C223.074 170.569 223.378 171.785 223.204 173.348L222.292 180.515C221.858 183.469 220.12 184.945 217.08 184.945H210.304C206.916 184.945 205.439 183.252 205.874 179.864L206.786 172.697C207.133 169.743 208.827 168.267 211.868 168.267H218.643ZM265.773 194.458C268.032 194.458 270.508 194.544 273.201 194.718C275.98 194.892 278.76 195.153 281.54 195.5C284.32 195.761 286.969 196.108 289.489 196.542C292.095 196.89 294.31 197.281 296.134 197.715L286.492 206.706C282.496 206.532 278.847 206.402 275.546 206.315C272.332 206.228 269.552 206.185 267.207 206.185C263.732 206.185 260.822 206.445 258.476 206.967C256.218 207.401 254.35 208.357 252.873 209.833C251.397 211.223 250.18 213.352 249.225 216.218C248.356 218.998 247.574 222.733 246.879 227.424C246.098 233.244 245.707 237.675 245.707 240.715C245.707 243.756 246.315 245.84 247.531 246.97C248.747 248.099 250.615 248.664 253.134 248.664C255.827 248.577 258.563 247.838 261.343 246.448C264.123 245.059 266.946 243.061 269.813 240.455C272.679 237.848 275.546 234.808 278.413 231.333L281.279 237.197C279.368 241.801 276.762 245.927 273.461 249.576C270.16 253.224 266.381 256.134 262.125 258.306C257.868 260.391 253.221 261.477 248.182 261.564C242.797 261.651 238.627 260.565 235.673 258.306C232.807 255.961 230.982 252.225 230.201 247.1C229.506 241.888 229.723 235.199 230.852 227.033C231.981 219.736 233.502 213.916 235.413 209.573C237.324 205.142 239.713 201.885 242.579 199.8C245.446 197.628 248.791 196.195 252.613 195.5C256.522 194.805 260.909 194.458 265.773 194.458ZM280.498 197.064L296.134 197.715L287.404 260H275.155L275.676 245.276L273.852 243.842L280.498 197.064ZM336.783 194.458C342.082 194.458 347.468 194.805 352.941 195.5C358.501 196.195 363.192 197.151 367.014 198.367L364.277 206.055C359.934 205.968 356.025 205.881 352.55 205.794C349.162 205.707 346.035 205.664 343.168 205.664C339.607 205.664 336.653 205.924 334.308 206.445C331.962 206.967 330.095 207.966 328.705 209.442C327.315 210.919 326.185 213.091 325.317 215.958C324.448 218.824 323.666 222.646 322.971 227.424C322.276 232.636 321.929 236.763 321.929 239.803C322.016 242.843 322.624 245.015 323.753 246.318C324.882 247.534 326.707 248.142 329.226 248.142C333.309 248.142 337.261 246.926 341.083 244.494C344.906 241.975 349.249 238.413 354.114 233.809L357.111 240.845C355.634 242.757 353.766 244.928 351.508 247.361C349.336 249.706 346.773 251.965 343.82 254.136C340.953 256.308 337.826 258.089 334.438 259.479C331.05 260.869 327.445 261.564 323.623 261.564C319.019 261.564 315.283 260.434 312.417 258.176C309.637 255.917 307.769 252.225 306.814 247.1C305.858 241.975 305.902 235.286 306.944 227.033C307.986 220.084 309.376 214.481 311.114 210.224C312.851 205.881 314.936 202.58 317.368 200.321C319.887 198.063 322.754 196.542 325.968 195.761C329.182 194.892 332.787 194.458 336.783 194.458ZM376.526 168.788L363.626 260H351.247L351.638 244.755L350.205 243.712L356.199 199.018L357.371 196.933C357.371 194.675 357.458 192.503 357.632 190.418C357.806 188.246 358.066 185.944 358.414 183.512L360.629 168.788H376.526ZM419 194.458C426.383 194.458 432.073 195.283 436.069 196.933C440.152 198.497 442.888 200.886 444.278 204.1C445.668 207.227 445.972 211.136 445.19 215.827C444.496 219.91 443.149 223.124 441.151 225.47C439.24 227.815 436.547 229.596 433.072 230.812C429.684 231.941 425.341 232.723 420.042 233.158L387.987 235.894L389.421 226.252L417.827 223.515C420.433 223.255 422.518 222.864 424.081 222.342C425.732 221.734 426.991 220.822 427.86 219.606C428.816 218.39 429.467 216.653 429.815 214.394C430.249 211.875 430.075 210.007 429.293 208.791C428.512 207.575 427.209 206.836 425.384 206.576C423.56 206.228 421.128 206.055 418.087 206.055C415.134 206.055 412.615 206.359 410.53 206.967C408.445 207.488 406.708 208.487 405.318 209.964C403.928 211.44 402.755 213.525 401.8 216.218C400.931 218.824 400.149 222.299 399.454 226.642C398.499 232.897 398.368 237.631 399.063 240.845C399.845 243.973 401.409 246.101 403.754 247.23C406.1 248.273 409.314 248.794 413.397 248.794C415.568 248.794 418.087 248.751 420.954 248.664C423.821 248.49 426.687 248.316 429.554 248.142C432.508 247.882 435.201 247.621 437.633 247.361L438.675 257.394C436.33 258.436 433.507 259.262 430.206 259.87C426.991 260.478 423.734 260.912 420.433 261.173C417.219 261.433 414.178 261.564 411.312 261.564C403.32 261.564 397.065 260.304 392.548 257.785C388.118 255.266 385.164 251.443 383.687 246.318C382.211 241.106 381.95 234.591 382.906 226.773C383.774 220.344 385.077 215.045 386.815 210.876C388.639 206.619 390.984 203.318 393.851 200.973C396.718 198.54 400.236 196.846 404.406 195.891C408.575 194.935 413.44 194.458 419 194.458ZM484.51 194.458C487.638 194.458 490.939 194.588 494.413 194.848C497.888 195.022 501.233 195.283 504.447 195.63C507.661 195.891 510.528 196.238 513.047 196.673L511.353 206.836C507.27 206.749 503.187 206.663 499.104 206.576C495.022 206.489 490.765 206.445 486.335 206.445C482.86 206.445 480.08 206.532 477.995 206.706C475.997 206.88 474.477 207.314 473.435 208.009C472.479 208.704 471.914 209.833 471.741 211.397C471.393 213.482 471.828 215.002 473.044 215.958C474.347 216.913 476.345 217.912 479.038 218.955L495.716 225.73C499.104 226.946 501.841 228.38 503.926 230.03C506.01 231.594 507.487 233.548 508.356 235.894C509.225 238.153 509.442 240.976 509.007 244.364C508.399 249.402 506.792 253.137 504.186 255.57C501.58 257.915 498.105 259.479 493.762 260.261C489.505 261.042 484.337 261.433 478.256 261.433C474.607 261.433 471.437 261.346 468.744 261.173C466.051 260.999 463.358 260.738 460.665 260.391C458.059 260.13 454.975 259.783 451.413 259.348L452.977 249.055C454.801 249.141 456.886 249.228 459.232 249.315C461.577 249.315 464.009 249.359 466.529 249.445C469.135 249.445 471.567 249.445 473.826 249.445C478.951 249.359 482.86 249.185 485.553 248.924C488.333 248.577 490.331 248.012 491.547 247.23C492.763 246.362 493.501 245.145 493.762 243.582C493.936 242.192 493.762 241.106 493.241 240.324C492.72 239.542 491.851 238.891 490.635 238.37C489.418 237.762 487.811 237.067 485.813 236.285L469.265 229.639C466.051 228.249 463.401 226.686 461.316 224.948C459.232 223.211 457.798 221.126 457.016 218.694C456.235 216.262 456.061 213.438 456.495 210.224C457.016 206.141 458.32 202.971 460.404 200.712C462.489 198.367 465.53 196.716 469.526 195.761C473.522 194.805 478.516 194.371 484.51 194.458Z" fill="white"/>
<path d="M83.2757 279.762C86.707 279.762 89.4434 280.175 91.4848 281C93.5262 281.825 94.9813 283.237 95.85 285.235C96.7621 287.189 97.2181 289.969 97.2181 293.574C97.2181 297.179 96.7838 299.981 95.9151 301.979C95.0464 303.977 93.6131 305.367 91.6151 306.148C89.6606 306.93 87.0111 307.321 83.6666 307.321C81.8858 307.321 80.1919 307.3 78.5848 307.256C76.9777 307.169 75.501 307.082 74.1545 306.995C72.8515 306.865 71.7222 306.735 70.7666 306.605C69.8545 306.474 69.2247 306.366 68.8772 306.279L69.0727 303.608C71.2878 303.608 73.6116 303.608 76.0439 303.608C78.4762 303.608 80.8651 303.608 83.2106 303.608C85.5995 303.564 87.4888 303.26 88.8787 302.695C90.3121 302.131 91.3328 301.132 91.9409 299.698C92.5489 298.222 92.853 296.18 92.853 293.574C92.853 290.881 92.5489 288.818 91.9409 287.385C91.3328 285.952 90.3121 284.953 88.8787 284.388C87.4888 283.823 85.5995 283.541 83.2106 283.541C79.7358 283.541 76.7388 283.563 74.2197 283.606C71.7005 283.606 70.0065 283.65 69.1378 283.736L68.2257 280.348C69.8328 280.175 71.3313 280.044 72.7212 279.958C74.1111 279.871 75.6313 279.827 77.2818 279.827C78.9323 279.784 80.9303 279.762 83.2757 279.762ZM72.4606 280.348V325.303H68.2257V280.348H72.4606ZM109.07 293.705L109.591 299.698L109.982 300.676V325.303H105.878V293.705H109.07ZM124.837 292.923L124.316 296.832H122.752C120.711 296.832 118.691 297.288 116.693 298.2C114.738 299.069 112.371 300.328 109.591 301.979L109.266 299.242C111.698 297.288 114.108 295.746 116.497 294.617C118.886 293.487 121.21 292.923 123.469 292.923H124.837ZM143.466 292.923C146.984 292.923 149.807 293.466 151.935 294.552C154.064 295.637 155.584 297.396 156.496 299.829C157.451 302.261 157.929 305.497 157.929 309.536C157.929 313.576 157.451 316.812 156.496 319.244C155.584 321.676 154.064 323.435 151.935 324.521C149.807 325.607 146.984 326.15 143.466 326.15C139.947 326.15 137.124 325.607 134.996 324.521C132.868 323.435 131.326 321.676 130.37 319.244C129.415 316.812 128.937 313.576 128.937 309.536C128.937 305.497 129.415 302.261 130.37 299.829C131.326 297.396 132.868 295.637 134.996 294.552C137.124 293.466 139.947 292.923 143.466 292.923ZM143.466 296.506C140.903 296.506 138.883 296.897 137.406 297.679C135.93 298.461 134.866 299.807 134.214 301.718C133.606 303.586 133.302 306.192 133.302 309.536C133.302 312.837 133.606 315.443 134.214 317.355C134.866 319.266 135.93 320.612 137.406 321.394C138.883 322.176 140.903 322.567 143.466 322.567C145.985 322.567 147.983 322.176 149.459 321.394C150.98 320.612 152.044 319.266 152.652 317.355C153.303 315.443 153.629 312.837 153.629 309.536C153.629 306.192 153.303 303.586 152.652 301.718C152.044 299.807 150.98 298.461 149.459 297.679C147.983 296.897 145.985 296.506 143.466 296.506ZM171.769 293.705V326.867C171.769 328.474 171.53 329.994 171.053 331.427C170.618 332.861 169.988 334.185 169.163 335.402C168.338 336.618 167.382 337.704 166.297 338.659L164.016 336.9C165.232 335.38 166.123 333.838 166.687 332.274C167.296 330.754 167.6 328.952 167.6 326.867V293.705H171.769ZM170.662 280.414C171.53 280.414 171.965 280.87 171.965 281.782V285.626C171.965 286.538 171.53 286.994 170.662 286.994H168.772C167.86 286.994 167.404 286.538 167.404 285.626V281.782C167.404 280.87 167.86 280.414 168.772 280.414H170.662ZM195.501 292.923C200.018 292.923 203.319 293.748 205.404 295.398C207.533 297.049 208.618 299.503 208.662 302.761C208.705 305.584 208.162 307.756 207.033 309.276C205.904 310.796 204.014 311.556 201.365 311.556H183.057V308.298H200.453C202.06 308.298 203.146 307.777 203.71 306.735C204.275 305.692 204.536 304.389 204.492 302.826C204.449 300.567 203.732 298.96 202.342 298.005C200.952 297.006 198.737 296.506 195.697 296.506C193.177 296.506 191.18 296.897 189.703 297.679C188.226 298.461 187.184 299.785 186.575 301.653C185.967 303.477 185.663 305.975 185.663 309.145C185.663 312.664 186.033 315.4 186.771 317.355C187.509 319.266 188.682 320.612 190.289 321.394C191.896 322.132 194.003 322.502 196.609 322.502C198.433 322.502 200.322 322.436 202.277 322.306C204.275 322.132 206.012 321.937 207.489 321.72L207.945 324.521C207.033 324.869 205.86 325.151 204.427 325.368C203.037 325.585 201.582 325.759 200.062 325.889C198.585 326.02 197.26 326.085 196.088 326.085C192.526 326.085 189.659 325.542 187.488 324.456C185.359 323.327 183.796 321.546 182.797 319.114C181.798 316.638 181.298 313.402 181.298 309.406C181.298 305.28 181.776 302.022 182.732 299.633C183.731 297.244 185.272 295.529 187.357 294.486C189.442 293.444 192.157 292.923 195.501 292.923ZM230.892 292.923C231.76 292.923 232.759 292.966 233.889 293.053C235.018 293.14 236.169 293.292 237.342 293.509C238.514 293.683 239.6 293.943 240.599 294.291L240.013 297.027C238.666 296.854 237.19 296.723 235.583 296.636C233.976 296.55 232.629 296.506 231.543 296.506C228.807 296.506 226.613 296.897 224.963 297.679C223.356 298.417 222.183 299.742 221.445 301.653C220.75 303.521 220.402 306.127 220.402 309.471C220.402 312.816 220.75 315.443 221.445 317.355C222.183 319.266 223.356 320.612 224.963 321.394C226.613 322.132 228.807 322.502 231.543 322.502C232.195 322.502 233.042 322.48 234.084 322.436C235.127 322.393 236.234 322.328 237.407 322.241C238.58 322.154 239.687 322.024 240.73 321.85L241.251 324.652C239.687 325.129 237.993 325.477 236.169 325.694C234.388 325.955 232.607 326.085 230.827 326.085C227.265 326.085 224.398 325.542 222.227 324.456C220.055 323.37 218.47 321.633 217.471 319.244C216.515 316.812 216.037 313.554 216.037 309.471C216.037 305.432 216.515 302.196 217.471 299.764C218.47 297.331 220.055 295.594 222.227 294.552C224.398 293.466 227.287 292.923 230.892 292.923ZM255.542 284.192V317.42C255.542 319.027 255.911 320.2 256.649 320.938C257.431 321.676 258.604 322.045 260.168 322.045H265.315L265.836 325.108C265.184 325.281 264.424 325.412 263.556 325.498C262.73 325.629 261.927 325.716 261.145 325.759C260.363 325.803 259.733 325.824 259.256 325.824C256.693 325.824 254.738 325.151 253.392 323.805C252.089 322.458 251.437 320.504 251.437 317.941V284.192H255.542ZM266.227 293.705V297.092H245.704V294.03L251.893 293.705H266.227ZM327.153 280.348L317.054 324C316.924 324.347 316.707 324.652 316.403 324.912C316.099 325.173 315.708 325.303 315.23 325.303H310.083C309.649 325.303 309.258 325.173 308.91 324.912C308.606 324.652 308.411 324.326 308.324 323.935L300.375 288.688C300.202 287.819 300.006 286.972 299.789 286.147C299.615 285.278 299.441 284.431 299.268 283.606H297.769C297.596 284.431 297.422 285.278 297.248 286.147C297.074 287.016 296.901 287.863 296.727 288.688L288.778 323.935C288.691 324.326 288.474 324.652 288.127 324.912C287.823 325.173 287.454 325.303 287.019 325.303H281.807C281.373 325.303 280.982 325.173 280.634 324.912C280.33 324.652 280.135 324.347 280.048 324L269.95 280.348H274.445L282.654 316.833C282.871 317.615 283.045 318.44 283.175 319.309C283.349 320.178 283.523 321.068 283.697 321.98H285.325C285.499 321.068 285.673 320.2 285.847 319.374C286.02 318.506 286.194 317.659 286.368 316.833L294.316 281.847C294.403 281.369 294.599 281 294.903 280.739C295.25 280.479 295.641 280.348 296.075 280.348H301.027C301.461 280.348 301.83 280.479 302.134 280.739C302.438 281 302.634 281.369 302.721 281.847L310.734 316.833C310.952 317.702 311.125 318.571 311.256 319.439C311.429 320.265 311.581 321.112 311.712 321.98H313.406C313.579 321.112 313.731 320.265 313.862 319.439C314.035 318.571 314.209 317.724 314.383 316.898L322.657 280.348H327.153ZM346.491 292.923C350.01 292.923 352.833 293.466 354.961 294.552C357.089 295.637 358.61 297.396 359.522 299.829C360.477 302.261 360.955 305.497 360.955 309.536C360.955 313.576 360.477 316.812 359.522 319.244C358.61 321.676 357.089 323.435 354.961 324.521C352.833 325.607 350.01 326.15 346.491 326.15C342.973 326.15 340.15 325.607 338.022 324.521C335.893 323.435 334.351 321.676 333.396 319.244C332.44 316.812 331.963 313.576 331.963 309.536C331.963 305.497 332.44 302.261 333.396 299.829C334.351 297.396 335.893 295.637 338.022 294.552C340.15 293.466 342.973 292.923 346.491 292.923ZM346.491 296.506C343.929 296.506 341.909 296.897 340.432 297.679C338.956 298.461 337.891 299.807 337.24 301.718C336.632 303.586 336.328 306.192 336.328 309.536C336.328 312.837 336.632 315.443 337.24 317.355C337.891 319.266 338.956 320.612 340.432 321.394C341.909 322.176 343.929 322.567 346.491 322.567C349.011 322.567 351.009 322.176 352.485 321.394C354.006 320.612 355.07 319.266 355.678 317.355C356.329 315.443 356.655 312.837 356.655 309.536C356.655 306.192 356.329 303.586 355.678 301.718C355.07 299.807 354.006 298.461 352.485 297.679C351.009 296.897 349.011 296.506 346.491 296.506ZM373.557 293.705L374.078 299.698L374.469 300.676V325.303H370.365V293.705H373.557ZM389.324 292.923L388.803 296.832H387.239C385.198 296.832 383.178 297.288 381.18 298.2C379.225 299.069 376.858 300.328 374.078 301.979L373.753 299.242C376.185 297.288 378.596 295.746 380.985 294.617C383.373 293.487 385.697 292.923 387.956 292.923H389.324ZM420.436 293.705L409.816 305.562C409.555 305.866 409.23 306.214 408.839 306.605C408.448 306.952 408.122 307.213 407.862 307.386V307.517C408.122 307.734 408.448 308.06 408.839 308.494C409.23 308.928 409.555 309.341 409.816 309.732L421.478 325.303H416.592L403.366 307.191L415.484 293.705H420.436ZM400.174 279.697L400.239 300.415C400.239 301.718 400.195 302.891 400.109 303.933C400.022 304.976 399.891 306.105 399.718 307.321C399.891 308.537 400 309.71 400.043 310.839C400.13 311.969 400.174 313.098 400.174 314.227V325.303H396.069V279.697H400.174ZM405.972 305.823V308.95H398.545V305.823H405.972ZM438.554 292.923C439.9 292.923 441.312 292.966 442.789 293.053C444.309 293.14 445.808 293.248 447.284 293.379C448.761 293.509 450.151 293.661 451.454 293.835L451.063 296.897C449.109 296.767 447.111 296.68 445.069 296.636C443.028 296.55 441.03 296.506 439.075 296.506C436.99 296.463 435.318 296.528 434.059 296.702C432.842 296.832 431.93 297.266 431.322 298.005C430.758 298.7 430.475 299.872 430.475 301.523C430.475 303.39 430.888 304.672 431.713 305.367C432.538 306.018 433.755 306.496 435.362 306.8L445.069 308.624C447.502 309.102 449.304 309.971 450.477 311.23C451.693 312.49 452.301 314.423 452.301 317.029C452.301 319.678 451.823 321.633 450.868 322.892C449.912 324.152 448.457 324.977 446.503 325.368C444.548 325.803 442.116 326.02 439.206 326.02C437.946 326.02 436.252 325.976 434.124 325.889C432.039 325.803 429.715 325.564 427.153 325.173L427.478 322.176C428.651 322.219 429.824 322.284 430.996 322.371C432.169 322.415 433.364 322.458 434.58 322.502C435.839 322.502 437.142 322.502 438.489 322.502C440.965 322.458 442.919 322.328 444.353 322.111C445.786 321.85 446.807 321.329 447.415 320.547C448.023 319.765 448.327 318.592 448.327 317.029C448.327 315.205 447.827 313.967 446.828 313.315C445.873 312.664 444.635 312.186 443.115 311.882L433.472 310.123C431.865 309.775 430.54 309.276 429.498 308.624C428.456 307.929 427.674 307.017 427.153 305.888C426.675 304.715 426.436 303.26 426.436 301.523C426.436 299.004 426.87 297.136 427.739 295.92C428.608 294.66 429.932 293.835 431.713 293.444C433.494 293.053 435.774 292.879 438.554 292.923Z" fill="white"/>
<circle cx="338" cy="43" r="10" fill="#EFCB68"/>
<ellipse cx="404.5" cy="122" rx="11.5" ry="12" fill="#EFCB68"/>
<circle cx="302.5" cy="163.5" r="7.5" fill="#EFCB68"/>
<ellipse cx="226.5" cy="122" rx="11.5" ry="12" fill="#EFCB68"/>
<circle cx="118.5" cy="139.5" r="11.5" fill="#EFCB68"/>
<circle cx="405" cy="65" r="8" fill="#EFCB68"/>
<circle cx="377.5" cy="7.5" r="7.5" fill="#EFCB68"/>
<line x1="117.767" y1="138.518" x2="225.767" y2="121.518" stroke="#EFCB68" stroke-width="3"/>
<line x1="226.107" y1="120.795" x2="334.565" y2="40.3685" stroke="#EFCB68" stroke-width="3"/>
<line x1="336.606" y1="40.6074" x2="405.148" y2="122.034" stroke="#EFCB68" stroke-width="3"/>
<line x1="301.439" y1="162.609" x2="404.596" y2="120.976" stroke="#EFCB68" stroke-width="3"/>
<line x1="403.5" y1="121.973" x2="404.5" y2="65.9732" stroke="#EFCB68" stroke-width="3"/>
<line x1="404.649" y1="65.6521" x2="376.649" y2="7.65212" stroke="#EFCB68" stroke-width="3"/>
<line x1="226.705" y1="121.676" x2="303.705" y2="162.676" stroke="#EFCB68" stroke-width="3"/>
</svg>
