<svg width="564" height="68" viewBox="0 0 564 68" fill="none" xmlns="http://www.w3.org/2000/svg">
<rect width="281" height="68" fill="white"/>
<rect x="283" width="281" height="68" fill="black"/>
<path d="M58.56 48V19.6H70.32C71.5467 19.6 72.6667 19.8533 73.68 20.36C74.72 20.8667 75.6133 21.56 76.36 22.44C77.1067 23.2933 77.6933 24.2533 78.12 25.32C78.5467 26.36 78.76 27.4267 78.76 28.52C78.76 30.0667 78.4133 31.5333 77.72 32.92C77.0533 34.28 76.1067 35.3867 74.88 36.24C73.6533 37.0933 72.2133 37.52 70.56 37.52H61.36V48H58.56ZM61.36 35.04H70.44C71.56 35.04 72.5333 34.7333 73.36 34.12C74.1867 33.5067 74.8267 32.7067 75.28 31.72C75.7333 30.7333 75.96 29.6667 75.96 28.52C75.96 27.3467 75.6933 26.2667 75.16 25.28C74.6267 24.2933 73.92 23.52 73.04 22.96C72.1867 22.3733 71.24 22.08 70.2 22.08H61.36V35.04ZM83.0028 18.8H85.7228V43.28C85.7228 44.32 85.9095 45 86.2828 45.32C86.6561 45.64 87.1095 45.8 87.6428 45.8C88.1228 45.8 88.6028 45.7467 89.0828 45.64C89.5628 45.5333 89.9761 45.4267 90.3228 45.32L90.8028 47.52C90.2961 47.7333 89.6695 47.9067 88.9228 48.04C88.2028 48.1733 87.5761 48.24 87.0428 48.24C85.8161 48.24 84.8295 47.88 84.0828 47.16C83.3628 46.44 83.0028 45.4533 83.0028 44.2V18.8ZM102.781 48.4C101.288 48.4 99.9013 48.12 98.6213 47.56C97.3413 46.9733 96.2346 46.1867 95.3013 45.2C94.3679 44.1867 93.6346 43.0267 93.1013 41.72C92.5946 40.4133 92.3413 39.0133 92.3413 37.52C92.3413 35.5733 92.7813 33.7867 93.6613 32.16C94.5679 30.5333 95.8079 29.24 97.3813 28.28C98.9546 27.2933 100.741 26.8 102.741 26.8C104.795 26.8 106.581 27.2933 108.101 28.28C109.648 29.2667 110.861 30.5733 111.741 32.2C112.621 33.8 113.061 35.56 113.061 37.48C113.061 37.6933 113.061 37.9067 113.061 38.12C113.061 38.3067 113.048 38.4533 113.021 38.56H95.1813C95.3146 40.0533 95.7279 41.3867 96.4213 42.56C97.1413 43.7067 98.0613 44.6267 99.1813 45.32C100.328 45.9867 101.568 46.32 102.901 46.32C104.261 46.32 105.541 45.9733 106.741 45.28C107.968 44.5867 108.821 43.68 109.301 42.56L111.661 43.2C111.235 44.1867 110.581 45.08 109.701 45.88C108.821 46.68 107.781 47.3067 106.581 47.76C105.408 48.1867 104.141 48.4 102.781 48.4ZM95.1013 36.6H110.501C110.395 35.08 109.981 33.7467 109.261 32.6C108.568 31.4533 107.648 30.56 106.501 29.92C105.381 29.2533 104.141 28.92 102.781 28.92C101.421 28.92 100.181 29.2533 99.0613 29.92C97.9413 30.56 97.0213 31.4667 96.3013 32.64C95.6079 33.7867 95.2079 35.1067 95.1013 36.6ZM117.258 48V27.16H119.978V48H117.258ZM117.258 22.8V18.8H119.978V22.8H117.258ZM124.289 42C124.289 40.6933 124.662 39.5733 125.409 38.64C126.155 37.68 127.182 36.9467 128.489 36.44C129.822 35.9067 131.355 35.64 133.089 35.64C134.102 35.64 135.155 35.72 136.249 35.88C137.342 36.04 138.315 36.28 139.169 36.6V34.84C139.169 33.08 138.649 31.68 137.609 30.64C136.569 29.6 135.129 29.08 133.289 29.08C132.169 29.08 131.062 29.2933 129.969 29.72C128.902 30.12 127.782 30.72 126.609 31.52L125.569 29.6C126.929 28.6667 128.262 27.9733 129.569 27.52C130.875 27.04 132.209 26.8 133.569 26.8C136.129 26.8 138.155 27.5333 139.649 29C141.142 30.4667 141.889 32.4933 141.889 35.08V44.72C141.889 45.0933 141.969 45.3733 142.129 45.56C142.289 45.72 142.542 45.8133 142.889 45.84V48C142.595 48.0267 142.342 48.0533 142.129 48.08C141.915 48.1067 141.755 48.1067 141.649 48.08C140.982 48.0533 140.475 47.84 140.129 47.44C139.782 47.04 139.595 46.6133 139.569 46.16L139.529 44.64C138.595 45.84 137.382 46.7733 135.889 47.44C134.395 48.08 132.875 48.4 131.329 48.4C129.995 48.4 128.782 48.12 127.689 47.56C126.622 46.9733 125.782 46.2 125.169 45.24C124.582 44.2533 124.289 43.1733 124.289 42ZM138.249 43.6C138.542 43.2267 138.769 42.8667 138.929 42.52C139.089 42.1733 139.169 41.8667 139.169 41.6V38.56C138.262 38.2133 137.315 37.9467 136.329 37.76C135.369 37.5733 134.395 37.48 133.409 37.48C131.462 37.48 129.889 37.8667 128.689 38.64C127.489 39.4133 126.889 40.4667 126.889 41.8C126.889 42.5733 127.089 43.3067 127.489 44C127.889 44.6667 128.475 45.2267 129.249 45.68C130.022 46.1067 130.929 46.32 131.969 46.32C133.275 46.32 134.489 46.0667 135.609 45.56C136.755 45.0533 137.635 44.4 138.249 43.6ZM146.366 37.64C146.366 35.6667 146.766 33.8667 147.566 32.24C148.392 30.5867 149.526 29.2667 150.966 28.28C152.406 27.2933 154.046 26.8 155.886 26.8C157.619 26.8 159.166 27.2667 160.526 28.2C161.912 29.1067 162.992 30.2133 163.766 31.52V18.8H166.486V44.72C166.486 45.0933 166.566 45.3733 166.726 45.56C166.886 45.72 167.126 45.8133 167.446 45.84V48C166.912 48.08 166.499 48.1067 166.206 48.08C165.646 48.0533 165.152 47.8267 164.726 47.4C164.299 46.9733 164.086 46.5067 164.086 46V43.96C163.259 45.32 162.139 46.4 160.726 47.2C159.312 48 157.846 48.4 156.326 48.4C154.886 48.4 153.552 48.1067 152.326 47.52C151.126 46.9333 150.072 46.1333 149.166 45.12C148.286 44.1067 147.592 42.96 147.086 41.68C146.606 40.3733 146.366 39.0267 146.366 37.64ZM163.766 40.84V34.4C163.419 33.44 162.859 32.5733 162.086 31.8C161.312 31 160.432 30.3733 159.446 29.92C158.486 29.44 157.526 29.2 156.566 29.2C155.446 29.2 154.432 29.44 153.526 29.92C152.619 30.3733 151.832 31 151.166 31.8C150.526 32.6 150.032 33.5067 149.686 34.52C149.339 35.5333 149.166 36.5733 149.166 37.64C149.166 38.76 149.352 39.8267 149.726 40.84C150.126 41.8533 150.686 42.76 151.406 43.56C152.126 44.3333 152.952 44.9333 153.886 45.36C154.819 45.7867 155.832 46 156.926 46C157.619 46 158.339 45.8667 159.086 45.6C159.832 45.3333 160.539 44.9733 161.206 44.52C161.899 44.04 162.472 43.48 162.926 42.84C163.379 42.2 163.659 41.5333 163.766 40.84ZM181.648 48.4C180.155 48.4 178.768 48.12 177.488 47.56C176.208 46.9733 175.102 46.1867 174.168 45.2C173.235 44.1867 172.502 43.0267 171.968 41.72C171.462 40.4133 171.208 39.0133 171.208 37.52C171.208 35.5733 171.648 33.7867 172.528 32.16C173.435 30.5333 174.675 29.24 176.248 28.28C177.822 27.2933 179.608 26.8 181.608 26.8C183.662 26.8 185.448 27.2933 186.968 28.28C188.515 29.2667 189.728 30.5733 190.608 32.2C191.488 33.8 191.928 35.56 191.928 37.48C191.928 37.6933 191.928 37.9067 191.928 38.12C191.928 38.3067 191.915 38.4533 191.888 38.56H174.048C174.182 40.0533 174.595 41.3867 175.288 42.56C176.008 43.7067 176.928 44.6267 178.048 45.32C179.195 45.9867 180.435 46.32 181.768 46.32C183.128 46.32 184.408 45.9733 185.608 45.28C186.835 44.5867 187.688 43.68 188.168 42.56L190.528 43.2C190.102 44.1867 189.448 45.08 188.568 45.88C187.688 46.68 186.648 47.3067 185.448 47.76C184.275 48.1867 183.008 48.4 181.648 48.4ZM173.968 36.6H189.368C189.262 35.08 188.848 33.7467 188.128 32.6C187.435 31.4533 186.515 30.56 185.368 29.92C184.248 29.2533 183.008 28.92 181.648 28.92C180.288 28.92 179.048 29.2533 177.928 29.92C176.808 30.56 175.888 31.4667 175.168 32.64C174.475 33.7867 174.075 35.1067 173.968 36.6ZM202.965 48.4C201.258 48.4 199.672 48.12 198.205 47.56C196.738 47 195.472 46.1467 194.405 45L195.525 43.08C196.698 44.1733 197.872 44.9733 199.045 45.48C200.245 45.96 201.512 46.2 202.845 46.2C204.472 46.2 205.792 45.88 206.805 45.24C207.818 44.5733 208.325 43.6267 208.325 42.4C208.325 41.5733 208.072 40.9467 207.565 40.52C207.085 40.0667 206.378 39.7067 205.445 39.44C204.538 39.1467 203.445 38.84 202.165 38.52C200.725 38.12 199.512 37.7067 198.525 37.28C197.565 36.8267 196.832 36.2667 196.325 35.6C195.845 34.9067 195.605 34.0133 195.605 32.92C195.605 31.56 195.938 30.44 196.605 29.56C197.298 28.6533 198.232 27.9733 199.405 27.52C200.605 27.04 201.938 26.8 203.405 26.8C205.005 26.8 206.418 27.0533 207.645 27.56C208.872 28.0667 209.872 28.7733 210.645 29.68L209.325 31.52C208.578 30.6667 207.685 30.04 206.645 29.64C205.632 29.2133 204.498 29 203.245 29C202.392 29 201.578 29.12 200.805 29.36C200.032 29.5733 199.392 29.9467 198.885 30.48C198.405 30.9867 198.165 31.6933 198.165 32.6C198.165 33.3467 198.352 33.9333 198.725 34.36C199.098 34.76 199.658 35.1067 200.405 35.4C201.152 35.6667 202.072 35.96 203.165 36.28C204.738 36.7067 206.112 37.1467 207.285 37.6C208.458 38.0267 209.365 38.5867 210.005 39.28C210.645 39.9733 210.965 40.9467 210.965 42.2C210.965 44.1467 210.232 45.6667 208.765 46.76C207.298 47.8533 205.365 48.4 202.965 48.4Z" fill="black"/>
<path d="M303.56 48V19.6H315.32C316.547 19.6 317.667 19.8533 318.68 20.36C319.72 20.8667 320.613 21.56 321.36 22.44C322.107 23.2933 322.693 24.2533 323.12 25.32C323.547 26.36 323.76 27.4267 323.76 28.52C323.76 30.0667 323.413 31.5333 322.72 32.92C322.053 34.28 321.107 35.3867 319.88 36.24C318.653 37.0933 317.213 37.52 315.56 37.52H306.36V48H303.56ZM306.36 35.04H315.44C316.56 35.04 317.533 34.7333 318.36 34.12C319.187 33.5067 319.827 32.7067 320.28 31.72C320.733 30.7333 320.96 29.6667 320.96 28.52C320.96 27.3467 320.693 26.2667 320.16 25.28C319.627 24.2933 318.92 23.52 318.04 22.96C317.187 22.3733 316.24 22.08 315.2 22.08H306.36V35.04ZM338.283 29.56C336.469 29.6133 334.869 30.12 333.483 31.08C332.123 32.04 331.163 33.36 330.603 35.04V48H327.883V27.16H330.443V32.16C331.163 30.6933 332.109 29.5067 333.283 28.6C334.483 27.6933 335.749 27.1867 337.083 27.08C337.349 27.0533 337.576 27.04 337.763 27.04C337.976 27.04 338.149 27.0533 338.283 27.08V29.56ZM350.122 48.4C348.629 48.4 347.242 48.12 345.962 47.56C344.709 46.9733 343.616 46.1867 342.682 45.2C341.776 44.1867 341.069 43.04 340.562 41.76C340.056 40.4533 339.802 39.08 339.802 37.64C339.802 36.1467 340.056 34.76 340.562 33.48C341.069 32.1733 341.789 31.0267 342.722 30.04C343.656 29.0267 344.749 28.24 346.002 27.68C347.282 27.0933 348.669 26.8 350.162 26.8C351.656 26.8 353.029 27.0933 354.282 27.68C355.536 28.24 356.629 29.0267 357.562 30.04C358.496 31.0267 359.216 32.1733 359.722 33.48C360.229 34.76 360.482 36.1467 360.482 37.64C360.482 39.08 360.229 40.4533 359.722 41.76C359.216 43.04 358.496 44.1867 357.562 45.2C356.656 46.1867 355.562 46.9733 354.282 47.56C353.029 48.12 351.642 48.4 350.122 48.4ZM342.562 37.68C342.562 39.2267 342.896 40.64 343.562 41.92C344.256 43.1733 345.176 44.1733 346.322 44.92C347.469 45.64 348.736 46 350.122 46C351.509 46 352.776 45.6267 353.922 44.88C355.069 44.1333 355.989 43.12 356.682 41.84C357.376 40.5333 357.722 39.12 357.722 37.6C357.722 36.0533 357.376 34.64 356.682 33.36C355.989 32.08 355.069 31.0667 353.922 30.32C352.776 29.5733 351.509 29.2 350.122 29.2C348.736 29.2 347.469 29.5867 346.322 30.36C345.202 31.1333 344.296 32.16 343.602 33.44C342.909 34.6933 342.562 36.1067 342.562 37.68ZM361.911 55.24C361.031 55.24 360.205 55.12 359.431 54.88C358.631 54.64 357.938 54.24 357.351 53.68L358.671 51.84C359.071 52.2133 359.538 52.4667 360.071 52.6C360.578 52.7333 361.085 52.8 361.591 52.8C362.231 52.8 362.831 52.64 363.391 52.32C363.951 52 364.405 51.5467 364.751 50.96C365.125 50.4 365.311 49.7733 365.311 49.08V27.16H368.031V48.92C368.031 50.1467 367.738 51.24 367.151 52.2C366.565 53.16 365.805 53.9067 364.871 54.44C363.938 54.9733 362.951 55.24 361.911 55.24ZM365.311 22.8V18.8H368.031V22.8H365.311ZM383.016 48.4C381.522 48.4 380.136 48.12 378.856 47.56C377.576 46.9733 376.469 46.1867 375.536 45.2C374.602 44.1867 373.869 43.0267 373.336 41.72C372.829 40.4133 372.576 39.0133 372.576 37.52C372.576 35.5733 373.016 33.7867 373.896 32.16C374.802 30.5333 376.042 29.24 377.616 28.28C379.189 27.2933 380.976 26.8 382.976 26.8C385.029 26.8 386.816 27.2933 388.336 28.28C389.882 29.2667 391.096 30.5733 391.976 32.2C392.856 33.8 393.296 35.56 393.296 37.48C393.296 37.6933 393.296 37.9067 393.296 38.12C393.296 38.3067 393.282 38.4533 393.256 38.56H375.416C375.549 40.0533 375.962 41.3867 376.656 42.56C377.376 43.7067 378.296 44.6267 379.416 45.32C380.562 45.9867 381.802 46.32 383.136 46.32C384.496 46.32 385.776 45.9733 386.976 45.28C388.202 44.5867 389.056 43.68 389.536 42.56L391.896 43.2C391.469 44.1867 390.816 45.08 389.936 45.88C389.056 46.68 388.016 47.3067 386.816 47.76C385.642 48.1867 384.376 48.4 383.016 48.4ZM375.336 36.6H390.736C390.629 35.08 390.216 33.7467 389.496 32.6C388.802 31.4533 387.882 30.56 386.736 29.92C385.616 29.2533 384.376 28.92 383.016 28.92C381.656 28.92 380.416 29.2533 379.296 29.92C378.176 30.56 377.256 31.4667 376.536 32.64C375.842 33.7867 375.442 35.1067 375.336 36.6ZM406.532 48.4C405.012 48.4 403.612 48.12 402.332 47.56C401.079 46.9733 399.972 46.1733 399.012 45.16C398.079 44.1467 397.346 42.9867 396.812 41.68C396.306 40.3733 396.052 38.9867 396.052 37.52C396.052 35.5467 396.492 33.7467 397.372 32.12C398.252 30.4933 399.479 29.2 401.052 28.24C402.626 27.28 404.439 26.8 406.492 26.8C408.439 26.8 410.159 27.2533 411.652 28.16C413.146 29.04 414.252 30.24 414.972 31.76L412.332 32.6C411.746 31.5333 410.919 30.7067 409.852 30.12C408.812 29.5067 407.652 29.2 406.372 29.2C404.986 29.2 403.719 29.56 402.572 30.28C401.426 31 400.506 31.9867 399.812 33.24C399.146 34.4933 398.812 35.92 398.812 37.52C398.812 39.0933 399.159 40.52 399.852 41.8C400.546 43.08 401.466 44.1067 402.612 44.88C403.759 45.6267 405.026 46 406.412 46C407.319 46 408.186 45.84 409.012 45.52C409.866 45.2 410.599 44.7733 411.212 44.24C411.852 43.68 412.279 43.08 412.492 42.44L415.172 43.24C414.799 44.2267 414.172 45.12 413.292 45.92C412.439 46.6933 411.426 47.3067 410.252 47.76C409.106 48.1867 407.866 48.4 406.532 48.4ZM429.445 47C429.232 47.08 428.899 47.2267 428.445 47.44C427.992 47.6533 427.445 47.84 426.805 48C426.165 48.16 425.472 48.24 424.725 48.24C423.952 48.24 423.219 48.0933 422.525 47.8C421.859 47.5067 421.325 47.0667 420.925 46.48C420.525 45.8667 420.325 45.12 420.325 44.24V29.32H417.445V27.16H420.325V20.12H423.045V27.16H427.845V29.32H423.045V43.48C423.099 44.2267 423.365 44.7867 423.845 45.16C424.352 45.5333 424.925 45.72 425.565 45.72C426.312 45.72 426.992 45.6 427.605 45.36C428.219 45.0933 428.592 44.9067 428.725 44.8L429.445 47ZM442.834 19.8H445.474L449.474 29.88L453.514 19.8H456.194L451.234 31.92L456.674 44.76L466.954 19.6H469.994L457.954 48H455.474L449.514 33.96L443.514 48H441.074L429.074 19.6H432.074L442.394 44.76L447.794 31.92L442.834 19.8ZM479.614 48.4C478.121 48.4 476.734 48.12 475.454 47.56C474.201 46.9733 473.108 46.1867 472.174 45.2C471.268 44.1867 470.561 43.04 470.054 41.76C469.548 40.4533 469.294 39.08 469.294 37.64C469.294 36.1467 469.548 34.76 470.054 33.48C470.561 32.1733 471.281 31.0267 472.214 30.04C473.148 29.0267 474.241 28.24 475.494 27.68C476.774 27.0933 478.161 26.8 479.654 26.8C481.148 26.8 482.521 27.0933 483.774 27.68C485.028 28.24 486.121 29.0267 487.054 30.04C487.988 31.0267 488.708 32.1733 489.214 33.48C489.721 34.76 489.974 36.1467 489.974 37.64C489.974 39.08 489.721 40.4533 489.214 41.76C488.708 43.04 487.988 44.1867 487.054 45.2C486.148 46.1867 485.054 46.9733 483.774 47.56C482.521 48.12 481.134 48.4 479.614 48.4ZM472.054 37.68C472.054 39.2267 472.388 40.64 473.054 41.92C473.748 43.1733 474.668 44.1733 475.814 44.92C476.961 45.64 478.228 46 479.614 46C481.001 46 482.268 45.6267 483.414 44.88C484.561 44.1333 485.481 43.12 486.174 41.84C486.868 40.5333 487.214 39.12 487.214 37.6C487.214 36.0533 486.868 34.64 486.174 33.36C485.481 32.08 484.561 31.0667 483.414 30.32C482.268 29.5733 481.001 29.2 479.614 29.2C478.228 29.2 476.961 29.5867 475.814 30.36C474.694 31.1333 473.788 32.16 473.094 33.44C472.401 34.6933 472.054 36.1067 472.054 37.68ZM504.923 29.56C503.11 29.6133 501.51 30.12 500.123 31.08C498.763 32.04 497.803 33.36 497.243 35.04V48H494.523V27.16H497.083V32.16C497.803 30.6933 498.75 29.5067 499.923 28.6C501.123 27.6933 502.39 27.1867 503.723 27.08C503.99 27.0533 504.217 27.04 504.403 27.04C504.617 27.04 504.79 27.0533 504.923 27.08V29.56ZM523.427 48L515.707 37.32L511.267 41.48V48H508.547V18.8H511.267V38.56L523.067 27.2H526.067L517.547 35.72L526.387 48H523.427ZM536.598 48.4C534.891 48.4 533.304 48.12 531.838 47.56C530.371 47 529.104 46.1467 528.038 45L529.158 43.08C530.331 44.1733 531.504 44.9733 532.678 45.48C533.878 45.96 535.144 46.2 536.478 46.2C538.104 46.2 539.424 45.88 540.438 45.24C541.451 44.5733 541.958 43.6267 541.958 42.4C541.958 41.5733 541.704 40.9467 541.198 40.52C540.718 40.0667 540.011 39.7067 539.078 39.44C538.171 39.1467 537.078 38.84 535.798 38.52C534.358 38.12 533.144 37.7067 532.158 37.28C531.198 36.8267 530.464 36.2667 529.958 35.6C529.478 34.9067 529.238 34.0133 529.238 32.92C529.238 31.56 529.571 30.44 530.238 29.56C530.931 28.6533 531.864 27.9733 533.038 27.52C534.238 27.04 535.571 26.8 537.038 26.8C538.638 26.8 540.051 27.0533 541.278 27.56C542.504 28.0667 543.504 28.7733 544.278 29.68L542.958 31.52C542.211 30.6667 541.318 30.04 540.278 29.64C539.264 29.2133 538.131 29 536.878 29C536.024 29 535.211 29.12 534.438 29.36C533.664 29.5733 533.024 29.9467 532.518 30.48C532.038 30.9867 531.798 31.6933 531.798 32.6C531.798 33.3467 531.984 33.9333 532.358 34.36C532.731 34.76 533.291 35.1067 534.038 35.4C534.784 35.6667 535.704 35.96 536.798 36.28C538.371 36.7067 539.744 37.1467 540.918 37.6C542.091 38.0267 542.998 38.5867 543.638 39.28C544.278 39.9733 544.598 40.9467 544.598 42.2C544.598 44.1467 543.864 45.6667 542.398 46.76C540.931 47.8533 538.998 48.4 536.598 48.4Z" fill="white"/>
</svg>
