<svg width="381" height="345" viewBox="0 0 381 345" fill="none" xmlns="http://www.w3.org/2000/svg">
<rect width="101.824" height="99.5296" transform="matrix(0.685605 0.727973 -0.685605 0.727973 190.238 39)" fill="#EFCB68"/>
<rect width="53.5087" height="53.5087" transform="matrix(0.685605 0.727973 -0.685605 0.727973 85.6858 108)" fill="#EFCB68"/>
<rect width="53.5087" height="53.5087" transform="matrix(0.685605 0.727973 -0.685605 0.727973 296.686 39)" fill="#EFCB68"/>
<path d="M33.2222 211.509C38.8236 211.509 43.2661 212.223 46.5497 213.651C49.8333 215.078 52.0546 217.491 53.2135 220.889C54.4367 224.22 54.6299 228.773 53.7929 234.55C53.0203 240.531 51.7326 245.119 49.9299 248.314C48.1271 251.508 45.584 253.683 42.3004 254.838C39.0168 255.994 34.7352 256.571 29.4558 256.571C26.7516 256.571 24.0796 256.47 21.4399 256.265C18.8646 255.994 16.4502 255.688 14.1967 255.348C12.0076 255.008 10.1083 254.668 8.4987 254.328C6.88911 253.921 5.79456 253.547 5.21512 253.207L5.79456 246.58C9.46444 246.58 13.2631 246.58 17.1906 246.58C21.1823 246.58 25.0132 246.58 28.6831 246.58C31.7092 246.58 34.0592 246.24 35.7332 245.56C37.4715 244.813 38.8236 243.522 39.7894 241.687C40.7551 239.784 41.4634 237.065 41.914 233.531C42.3647 230.336 42.3647 227.89 41.914 226.19C41.4634 224.423 40.4976 223.2 39.0168 222.52C37.6003 221.84 35.54 221.501 32.8359 221.501C27.1701 221.501 22.2769 221.534 18.1563 221.602C14.1001 221.67 11.3638 221.807 9.94731 222.01L9.36787 212.427C11.9433 212.155 14.3577 211.951 16.6111 211.815C18.8646 211.679 21.2789 211.611 23.8543 211.611C26.4296 211.544 29.5523 211.509 33.2222 211.509ZM21.4399 212.427L12.072 282.773H0L9.36787 212.427H21.4399ZM78.4743 211.408L70.9411 267.99C70.6194 269.961 70.8121 271.388 71.5207 272.272C72.293 273.087 73.7101 273.495 75.7698 273.495H80.3094L80.7919 282.262C80.0841 282.603 79.0858 282.874 77.7984 283.078C76.5102 283.35 75.2228 283.521 73.9354 283.588C72.6473 283.724 71.5852 283.792 70.7484 283.792C66.6274 283.792 63.5048 282.636 61.3802 280.326C59.2555 277.947 58.4507 274.65 58.9658 270.436L66.7884 211.408H78.4743ZM115.323 231.492C120.795 231.492 125.012 232.138 127.974 233.428C131 234.652 133.028 236.521 134.058 239.036C135.088 241.483 135.314 244.541 134.734 248.211C134.219 251.406 133.221 253.92 131.74 255.756C130.324 257.591 128.328 258.984 125.753 259.936C123.241 260.819 120.023 261.431 116.095 261.771L92.3371 263.912L93.3999 256.368L114.453 254.226C116.385 254.023 117.93 253.717 119.089 253.309C120.312 252.833 121.245 252.119 121.89 251.168C122.598 250.217 123.081 248.858 123.339 247.09C123.66 245.119 123.531 243.658 122.952 242.706C122.373 241.755 121.407 241.177 120.054 240.973C118.703 240.701 116.9 240.566 114.646 240.566C112.457 240.566 110.59 240.803 109.045 241.279C107.5 241.687 106.212 242.468 105.182 243.624C104.152 244.779 103.283 246.41 102.575 248.517C101.931 250.556 101.351 253.275 100.836 256.673C100.127 261.567 100.031 265.271 100.546 267.786C101.126 270.233 102.285 271.898 104.023 272.781C105.762 273.597 108.144 274.005 111.169 274.005C112.779 274.005 114.646 273.971 116.771 273.903C118.896 273.767 121.02 273.631 123.145 273.495C125.334 273.291 127.33 273.087 129.133 272.884L129.905 280.734C128.167 281.549 126.075 282.195 123.628 282.671C121.245 283.147 118.832 283.486 116.385 283.69C114.003 283.894 111.749 283.996 109.625 283.996C103.701 283.996 99.0654 283.01 95.7175 281.04C92.4342 279.069 90.2448 276.077 89.1501 272.068C88.0561 267.99 87.8627 262.892 88.5712 256.775C89.2145 251.745 90.1803 247.599 91.4684 244.338C92.8203 241.007 94.5583 238.424 96.6833 236.589C98.8082 234.686 101.416 233.36 104.506 232.613C107.596 231.865 111.202 231.492 115.323 231.492ZM159.145 232.715L152.578 282.773H140.892L147.555 232.715H159.145ZM158.468 211C159.756 211 160.658 211.373 161.173 212.121C161.752 212.801 161.978 213.753 161.849 214.975L161.173 220.583C160.851 222.894 159.563 224.049 157.31 224.049H152.288C149.777 224.049 148.682 222.724 149.004 220.074L149.68 214.466C149.937 212.155 151.193 211 153.447 211H158.468ZM193.399 231.492C195.074 231.492 196.909 231.559 198.905 231.695C200.965 231.832 203.025 232.036 205.085 232.307C207.146 232.511 209.109 232.783 210.977 233.123C212.908 233.395 214.55 233.701 215.902 234.04L208.756 241.075C205.794 240.939 203.089 240.837 200.643 240.769C198.261 240.701 196.2 240.667 194.462 240.667C191.887 240.667 189.73 240.871 187.991 241.279C186.318 241.619 184.933 242.367 183.838 243.522C182.744 244.609 181.842 246.275 181.135 248.517C180.491 250.692 179.911 253.615 179.396 257.285C178.817 261.838 178.527 265.305 178.527 267.684C178.527 270.063 178.978 271.694 179.879 272.578C180.78 273.461 182.165 273.903 184.032 273.903C186.028 273.835 188.056 273.257 190.116 272.169C192.177 271.083 194.269 269.519 196.394 267.48C198.518 265.441 200.643 263.062 202.768 260.343L204.892 264.931C203.476 268.534 201.544 271.762 199.098 274.617C196.651 277.471 193.85 279.748 190.696 281.447C187.541 283.078 184.096 283.928 180.362 283.996C176.37 284.064 173.28 283.215 171.09 281.447C168.966 279.612 167.614 276.689 167.035 272.679C166.52 268.602 166.68 263.368 167.517 256.979C168.354 251.27 169.481 246.716 170.898 243.318C172.314 239.851 174.085 237.303 176.209 235.672C178.334 233.972 180.813 232.851 183.646 232.307C186.543 231.764 189.794 231.492 193.399 231.492ZM204.313 233.531L215.902 234.04L209.432 282.773H200.353L200.739 271.252L199.387 270.13L204.313 233.531ZM246.03 231.492C249.957 231.492 253.949 231.764 258.005 232.307C262.126 232.851 265.603 233.599 268.436 234.55L266.407 240.566C263.188 240.498 260.291 240.429 257.716 240.361C255.205 240.293 252.887 240.26 250.762 240.26C248.123 240.26 245.933 240.463 244.195 240.871C242.456 241.279 241.073 242.061 240.042 243.216C239.012 244.371 238.175 246.071 237.531 248.314C236.887 250.556 236.308 253.547 235.793 257.285C235.278 261.363 235.02 264.592 235.02 266.97C235.085 269.349 235.535 271.048 236.372 272.068C237.209 273.019 238.562 273.495 240.429 273.495C243.455 273.495 246.384 272.543 249.217 270.641C252.05 268.67 255.269 265.883 258.875 262.281L261.096 267.786C260.001 269.281 258.617 270.98 256.943 272.884C255.333 274.718 253.434 276.486 251.245 278.185C249.12 279.884 246.803 281.277 244.292 282.365C241.781 283.452 239.109 283.996 236.276 283.996C232.864 283.996 230.095 283.112 227.97 281.345C225.91 279.578 224.525 276.689 223.818 272.679C223.109 268.67 223.142 263.436 223.914 256.979C224.686 251.542 225.717 247.158 227.005 243.827C228.292 240.429 229.837 237.847 231.64 236.079C233.507 234.313 235.632 233.123 238.014 232.511C240.396 231.832 243.068 231.492 246.03 231.492ZM275.486 211.408L265.925 282.773H256.75L257.04 270.845L255.978 270.029L260.42 235.06L261.289 233.428C261.289 231.662 261.353 229.962 261.482 228.331C261.611 226.632 261.804 224.831 262.062 222.928L263.703 211.408H275.486ZM306.966 231.492C312.438 231.492 316.655 232.138 319.617 233.428C322.643 234.652 324.671 236.521 325.701 239.036C326.731 241.483 326.957 244.541 326.377 248.211C325.863 251.406 324.864 253.92 323.384 255.756C321.967 257.591 319.971 258.984 317.396 259.936C314.885 260.819 311.666 261.431 307.738 261.771L283.98 263.912L285.043 256.368L306.097 254.226C308.028 254.023 309.573 253.717 310.732 253.309C311.956 252.833 312.889 252.119 313.533 251.168C314.241 250.217 314.724 248.858 314.982 247.09C315.303 245.119 315.174 243.658 314.595 242.706C314.016 241.755 313.05 241.177 311.698 240.973C310.346 240.701 308.543 240.566 306.289 240.566C304.101 240.566 302.234 240.803 300.688 241.279C299.143 241.687 297.856 242.468 296.825 243.624C295.795 244.779 294.926 246.41 294.218 248.517C293.574 250.556 292.994 253.275 292.479 256.673C291.771 261.567 291.674 265.271 292.189 267.786C292.769 270.233 293.928 271.898 295.666 272.781C297.405 273.597 299.787 274.005 302.813 274.005C304.422 274.005 306.289 273.971 308.414 273.903C310.539 273.767 312.663 273.631 314.788 273.495C316.978 273.291 318.974 273.087 320.776 272.884L321.548 280.734C319.81 281.549 317.718 282.195 315.272 282.671C312.889 283.147 310.475 283.486 308.028 283.69C305.646 283.894 303.392 283.996 301.268 283.996C295.345 283.996 290.709 283.01 287.361 281.04C284.077 279.069 281.888 276.077 280.793 272.068C279.699 267.99 279.506 262.892 280.214 256.775C280.858 251.745 281.823 247.599 283.112 244.338C284.464 241.007 286.202 238.424 288.326 236.589C290.451 234.686 293.059 233.36 296.149 232.613C299.239 231.865 302.845 231.492 306.966 231.492ZM355.52 231.492C357.838 231.492 360.285 231.594 362.86 231.797C365.435 231.933 367.914 232.138 370.296 232.409C372.679 232.613 374.803 232.885 376.67 233.225L375.415 241.177C372.389 241.109 369.363 241.041 366.336 240.973C363.311 240.905 360.156 240.871 356.872 240.871C354.297 240.871 352.236 240.939 350.691 241.075C349.21 241.211 348.084 241.551 347.311 242.094C346.603 242.638 346.184 243.522 346.056 244.745C345.798 246.377 346.12 247.566 347.022 248.314C347.987 249.061 349.468 249.843 351.464 250.659L363.825 255.959C366.336 256.911 368.365 258.033 369.91 259.324C371.455 260.547 372.55 262.076 373.194 263.912C373.838 265.679 373.999 267.888 373.676 270.539C373.226 274.481 372.034 277.403 370.103 279.306C368.172 281.141 365.596 282.365 362.377 282.977C359.222 283.588 355.392 283.894 350.885 283.894C348.18 283.894 345.831 283.826 343.835 283.69C341.839 283.554 339.843 283.35 337.847 283.078C335.915 282.874 333.629 282.603 330.989 282.262L332.149 274.209C333.501 274.276 335.046 274.344 336.785 274.413C338.523 274.413 340.325 274.447 342.193 274.514C344.124 274.514 345.927 274.514 347.601 274.514C351.4 274.447 354.297 274.311 356.293 274.107C358.353 273.835 359.834 273.393 360.735 272.781C361.637 272.102 362.184 271.15 362.377 269.927C362.506 268.839 362.377 267.99 361.991 267.378C361.605 266.766 360.961 266.257 360.059 265.849C359.157 265.373 357.966 264.83 356.486 264.218L344.221 259.018C341.839 257.93 339.875 256.707 338.329 255.348C336.785 253.989 335.722 252.357 335.142 250.454C334.563 248.552 334.434 246.342 334.756 243.827C335.142 240.633 336.109 238.153 337.653 236.385C339.199 234.55 341.452 233.259 344.414 232.511C347.376 231.764 351.077 231.424 355.52 231.492Z" fill="white"/>
<path d="M58.044 298.052C60.584 298.052 62.6096 298.381 64.1207 299.039C65.6318 299.696 66.7089 300.822 67.352 302.414C68.0271 303.972 68.3647 306.188 68.3647 309.062C68.3647 311.935 68.0432 314.169 67.4002 315.762C66.7571 317.354 65.6961 318.462 64.2171 319.085C62.7704 319.708 60.8091 320.02 58.3334 320.02C57.0152 320.02 55.7613 320.003 54.5716 319.968C53.382 319.899 52.2889 319.829 51.2922 319.76C50.3276 319.656 49.4917 319.553 48.7843 319.449C48.1091 319.345 47.6429 319.258 47.3857 319.189L47.5304 317.06C49.1701 317.06 50.8903 317.06 52.6908 317.06C54.4912 317.06 56.2596 317.06 57.9958 317.06C59.7642 317.025 61.1627 316.783 62.1916 316.332C63.2526 315.883 64.0082 315.086 64.4583 313.943C64.9084 312.767 65.1335 311.139 65.1335 309.062C65.1335 306.915 64.9084 305.271 64.4583 304.128C64.0082 302.986 63.2526 302.19 62.1916 301.739C61.1627 301.289 59.7642 301.064 57.9958 301.064C55.4236 301.064 53.2052 301.082 51.3404 301.116C49.4756 301.116 48.2217 301.151 47.5786 301.22L46.9034 298.519C48.0931 298.381 49.2023 298.277 50.2312 298.208C51.26 298.139 52.3853 298.104 53.6071 298.104C54.8289 298.069 56.3079 298.052 58.044 298.052ZM50.0383 298.519V334.354H46.9034V298.519H50.0383ZM77.1379 309.166L77.5236 313.943L77.813 314.723V334.354H74.7751V309.166H77.1379ZM88.8092 308.543L88.4236 311.659H87.2658C85.755 311.659 84.2597 312.022 82.7807 312.749C81.3336 313.442 79.5814 314.445 77.5236 315.762L77.283 313.58C79.0833 312.022 80.8672 310.793 82.6357 309.893C84.4041 308.992 86.1244 308.543 87.7966 308.543H88.8092ZM102.599 308.543C105.203 308.543 107.293 308.976 108.868 309.841C110.444 310.706 111.569 312.108 112.244 314.048C112.951 315.986 113.305 318.566 113.305 321.785C113.305 325.006 112.951 327.585 112.244 329.524C111.569 331.462 110.444 332.865 108.868 333.73C107.293 334.596 105.203 335.029 102.599 335.029C99.9942 335.029 97.9045 334.596 96.3293 333.73C94.7541 332.865 93.6126 331.462 92.905 329.524C92.198 327.585 91.8442 325.006 91.8442 321.785C91.8442 318.566 92.198 315.986 92.905 314.048C93.6126 312.108 94.7541 310.706 96.3293 309.841C97.9045 308.976 99.9942 308.543 102.599 308.543ZM102.599 311.399C100.702 311.399 99.2066 311.711 98.1133 312.334C97.0207 312.957 96.2331 314.03 95.7504 315.553C95.3004 317.042 95.0753 319.12 95.0753 321.785C95.0753 324.417 95.3004 326.494 95.7504 328.018C96.2331 329.541 97.0207 330.614 98.1133 331.238C99.2066 331.861 100.702 332.173 102.599 332.173C104.464 332.173 105.943 331.861 107.035 331.238C108.161 330.614 108.949 329.541 109.399 328.018C109.881 326.494 110.122 324.417 110.122 321.785C110.122 319.12 109.881 317.042 109.399 315.553C108.949 314.03 108.161 312.957 107.035 312.334C105.943 311.711 104.464 311.399 102.599 311.399ZM123.55 309.166V335.6C123.55 336.881 123.373 338.093 123.02 339.235C122.698 340.378 122.232 341.434 121.621 342.404C121.01 343.373 120.303 344.239 119.499 345L117.811 343.598C118.711 342.386 119.371 341.157 119.788 339.91C120.239 338.699 120.464 337.262 120.464 335.6V309.166H123.55ZM122.731 298.572C123.373 298.572 123.695 298.935 123.695 299.662V302.726C123.695 303.453 123.373 303.817 122.731 303.817H121.332C120.656 303.817 120.319 303.453 120.319 302.726V299.662C120.319 298.935 120.656 298.572 121.332 298.572H122.731ZM141.117 308.543C144.461 308.543 146.905 309.2 148.448 310.516C150.024 311.832 150.827 313.788 150.86 316.385C150.891 318.635 150.49 320.366 149.654 321.578C148.818 322.79 147.419 323.396 145.458 323.396H131.906V320.799H144.783C145.973 320.799 146.776 320.383 147.194 319.553C147.612 318.721 147.805 317.683 147.773 316.437C147.741 314.636 147.21 313.355 146.181 312.594C145.152 311.797 143.513 311.399 141.262 311.399C139.397 311.399 137.919 311.711 136.825 312.334C135.732 312.957 134.961 314.013 134.51 315.502C134.06 316.956 133.835 318.947 133.835 321.474C133.835 324.279 134.109 326.46 134.655 328.018C135.201 329.541 136.07 330.614 137.259 331.238C138.449 331.826 140.008 332.121 141.938 332.121C143.288 332.121 144.686 332.068 146.133 331.965C147.612 331.826 148.898 331.671 149.991 331.498L150.329 333.73C149.654 334.008 148.785 334.232 147.725 334.405C146.696 334.578 145.619 334.717 144.494 334.821C143.4 334.925 142.419 334.977 141.552 334.977C138.915 334.977 136.793 334.544 135.186 333.678C133.61 332.779 132.453 331.359 131.713 329.42C130.974 327.447 130.604 324.867 130.604 321.682C130.604 318.393 130.958 315.796 131.665 313.891C132.405 311.987 133.545 310.62 135.089 309.789C136.632 308.958 138.642 308.543 141.117 308.543ZM167.315 308.543C167.958 308.543 168.697 308.577 169.534 308.646C170.369 308.716 171.221 308.837 172.09 309.01C172.957 309.149 173.761 309.356 174.501 309.633L174.067 311.814C173.07 311.676 171.977 311.572 170.788 311.502C169.598 311.434 168.601 311.399 167.797 311.399C165.772 311.399 164.148 311.711 162.926 312.334C161.737 312.922 160.868 313.978 160.322 315.502C159.808 316.991 159.55 319.068 159.55 321.734C159.55 324.4 159.808 326.494 160.322 328.018C160.868 329.541 161.737 330.614 162.926 331.238C164.148 331.826 165.772 332.121 167.797 332.121C168.28 332.121 168.907 332.103 169.678 332.068C170.45 332.034 171.269 331.982 172.138 331.913C173.006 331.843 173.825 331.74 174.598 331.601L174.983 333.835C173.825 334.215 172.572 334.492 171.221 334.665C169.903 334.873 168.585 334.977 167.267 334.977C164.63 334.977 162.508 334.544 160.901 333.678C159.293 332.813 158.12 331.428 157.38 329.524C156.673 327.585 156.319 324.988 156.319 321.734C156.319 318.514 156.673 315.934 157.38 313.996C158.12 312.056 159.293 310.672 160.901 309.841C162.508 308.976 164.647 308.543 167.315 308.543ZM185.562 301.583V328.07C185.562 329.351 185.835 330.286 186.381 330.874C186.96 331.462 187.829 331.757 188.986 331.757H192.796L193.182 334.198C192.699 334.336 192.137 334.44 191.494 334.509C190.883 334.613 190.288 334.683 189.709 334.717C189.131 334.752 188.664 334.769 188.311 334.769C186.414 334.769 184.967 334.232 183.97 333.16C183.006 332.086 182.523 330.528 182.523 328.485V301.583H185.562ZM193.471 309.166V311.866H178.279V309.425L182.861 309.166H193.471ZM238.571 298.519L231.095 333.315C230.999 333.592 230.839 333.835 230.614 334.042C230.388 334.25 230.099 334.354 229.745 334.354H225.935C225.614 334.354 225.325 334.25 225.067 334.042C224.842 333.835 224.698 333.575 224.633 333.263L218.749 305.167C218.621 304.474 218.476 303.799 218.315 303.141C218.186 302.449 218.058 301.774 217.93 301.116H216.82C216.692 301.774 216.563 302.449 216.434 303.141C216.305 303.834 216.177 304.509 216.049 305.167L210.164 333.263C210.1 333.575 209.939 333.835 209.683 334.042C209.458 334.25 209.184 334.354 208.862 334.354H205.004C204.683 334.354 204.394 334.25 204.136 334.042C203.911 333.835 203.767 333.592 203.702 333.315L196.227 298.519H199.555L205.631 327.602C205.792 328.225 205.921 328.883 206.017 329.576C206.146 330.268 206.275 330.978 206.403 331.705H207.608C207.737 330.978 207.866 330.286 207.995 329.627C208.123 328.936 208.252 328.26 208.38 327.602L214.264 299.714C214.328 299.333 214.473 299.039 214.698 298.831C214.955 298.623 215.245 298.519 215.566 298.519H219.232C219.553 298.519 219.826 298.623 220.051 298.831C220.276 299.039 220.421 299.333 220.486 299.714L226.417 327.602C226.578 328.295 226.707 328.987 226.804 329.679C226.932 330.338 227.044 331.013 227.141 331.705H228.395C228.523 331.013 228.636 330.338 228.733 329.679C228.861 328.987 228.989 328.312 229.118 327.654L235.243 298.519H238.571ZM252.886 308.543C255.491 308.543 257.58 308.976 259.156 309.841C260.731 310.706 261.857 312.108 262.532 314.048C263.239 315.986 263.593 318.566 263.593 321.785C263.593 325.006 263.239 327.585 262.532 329.524C261.857 331.462 260.731 332.865 259.156 333.73C257.58 334.596 255.491 335.029 252.886 335.029C250.282 335.029 248.192 334.596 246.617 333.73C245.041 332.865 243.899 331.462 243.192 329.524C242.485 327.585 242.132 325.006 242.132 321.785C242.132 318.566 242.485 315.986 243.192 314.048C243.899 312.108 245.041 310.706 246.617 309.841C248.192 308.976 250.282 308.543 252.886 308.543ZM252.886 311.399C250.989 311.399 249.494 311.711 248.401 312.334C247.308 312.957 246.52 314.03 246.038 315.553C245.588 317.042 245.363 319.12 245.363 321.785C245.363 324.417 245.588 326.494 246.038 328.018C246.52 329.541 247.308 330.614 248.401 331.238C249.494 331.861 250.989 332.173 252.886 332.173C254.751 332.173 256.23 331.861 257.323 331.238C258.449 330.614 259.236 329.541 259.686 328.018C260.168 326.494 260.41 324.417 260.41 321.785C260.41 319.12 260.168 317.042 259.686 315.553C259.236 314.03 258.449 312.957 257.323 312.334C256.23 311.711 254.751 311.399 252.886 311.399ZM272.921 309.166L273.307 313.943L273.596 314.723V334.354H270.558V309.166H272.921ZM284.592 308.543L284.207 311.659H283.049C281.538 311.659 280.043 312.022 278.564 312.749C277.117 313.442 275.365 314.445 273.307 315.762L273.066 313.58C274.866 312.022 276.651 310.793 278.42 309.893C280.187 308.992 281.908 308.543 283.58 308.543H284.592ZM307.623 309.166L299.761 318.618C299.568 318.86 299.328 319.137 299.038 319.449C298.749 319.726 298.507 319.934 298.315 320.072V320.176C298.507 320.349 298.749 320.609 299.038 320.955C299.328 321.301 299.568 321.63 299.761 321.942L308.394 334.354H304.777L294.987 319.916L303.957 309.166H307.623ZM292.624 298L292.672 314.515C292.672 315.553 292.639 316.489 292.576 317.319C292.511 318.151 292.414 319.05 292.286 320.02C292.414 320.989 292.495 321.924 292.527 322.824C292.591 323.725 292.624 324.625 292.624 325.525V334.354H289.585V298H292.624ZM296.916 318.826V321.318H291.418V318.826H296.916ZM321.034 308.543C322.031 308.543 323.076 308.577 324.169 308.646C325.294 308.716 326.404 308.802 327.497 308.906C328.59 309.01 329.619 309.131 330.583 309.27L330.294 311.711C328.847 311.607 327.368 311.538 325.857 311.502C324.346 311.434 322.867 311.399 321.42 311.399C319.877 311.365 318.639 311.416 317.707 311.555C316.806 311.659 316.131 312.005 315.681 312.594C315.263 313.148 315.054 314.082 315.054 315.398C315.054 316.886 315.36 317.908 315.97 318.462C316.581 318.981 317.482 319.362 318.671 319.604L325.857 321.058C327.658 321.439 328.992 322.132 329.86 323.136C330.76 324.14 331.21 325.681 331.21 327.758C331.21 329.87 330.856 331.428 330.15 332.432C329.442 333.436 328.365 334.094 326.918 334.405C325.471 334.752 323.671 334.925 321.517 334.925C320.584 334.925 319.33 334.89 317.755 334.821C316.212 334.752 314.491 334.562 312.595 334.25L312.835 331.861C313.704 331.895 314.572 331.947 315.44 332.016C316.308 332.052 317.192 332.086 318.093 332.121C319.024 332.121 319.989 332.121 320.986 332.121C322.819 332.086 324.265 331.982 325.327 331.809C326.388 331.601 327.143 331.186 327.593 330.562C328.044 329.939 328.269 329.004 328.269 327.758C328.269 326.304 327.898 325.317 327.159 324.798C326.452 324.279 325.536 323.898 324.41 323.655L317.272 322.253C316.083 321.976 315.102 321.578 314.331 321.058C313.559 320.504 312.98 319.777 312.595 318.877C312.241 317.942 312.064 316.783 312.064 315.398C312.064 313.39 312.385 311.901 313.029 310.932C313.672 309.927 314.652 309.27 315.97 308.958C317.289 308.646 318.976 308.508 321.034 308.543Z" fill="white"/>
</svg>
