<?xml version="1.0" encoding="utf-8"?>
<!-- Generator: Adobe Illustrator 24.1.1, SVG Export Plug-In . SVG Version: 6.00 Build 0)  -->
<svg version="1.1" id="katman_1" xmlns="http://www.w3.org/2000/svg" xmlns:xlink="http://www.w3.org/1999/xlink" x="0px" y="0px"
	 viewBox="0 0 2000 2000" style="enable-background:new 0 0 2000 2000;" xml:space="preserve">
<g>
	<circle cx="1017.74" cy="1069.82" r="688.26"/>
	<path d="M452.95,989.51c-0.01-133.39,24.66-158.05,158.04-158.05c-133.38,0-158.06-24.67-158.06-158.06
		c0,133.38-24.66,158.06-158.05,158.05C428.27,831.46,452.93,856.12,452.95,989.51z"/>
	<path d="M1547.96,1564.56c-0.01-133.39,24.66-158.05,158.04-158.05c-133.38,0-158.05-24.67-158.05-158.05
		c0,133.38-24.66,158.05-158.06,158.05C1523.29,1406.52,1547.95,1431.17,1547.96,1564.56z"/>
	<path d="M810.95,627.34c-0.01-133.39,24.66-158.05,158.04-158.05c-133.38,0-158.06-24.67-158.06-158.06
		c0,133.38-24.66,158.06-158.05,158.05C786.27,469.29,810.93,493.95,810.95,627.34z"/>
	<path d="M660.51,1571.95c-0.03-176.11,32.55-208.67,208.65-208.67c-176.1,0-208.68-32.57-208.68-208.68
		c0,176.1-32.55,208.68-208.67,208.67C627.94,1363.29,660.48,1395.84,660.51,1571.95z"/>
	<path d="M1405.34,999.53c-0.03-185.32,34.25-219.58,219.57-219.58c-185.32,0-219.6-34.27-219.6-219.59
		c0,185.32-34.25,219.59-219.58,219.58C1371.06,779.95,1405.31,814.21,1405.34,999.53z"/>
</g>
</svg>
