<?xml version="1.0" encoding="utf-8"?>
<!-- Generator: Adobe Illustrator 24.1.1, SVG Export Plug-In . SVG Version: 6.00 Build 0)  -->
<svg version="1.1" id="katman_1" xmlns="http://www.w3.org/2000/svg" xmlns:xlink="http://www.w3.org/1999/xlink" x="0px" y="0px"
	 viewBox="0 0 2000 2000" style="enable-background:new 0 0 2000 2000;" xml:space="preserve">
<g>
	<path d="M680.92,1601.83c-3.55-24.02-8.3-60.85-8.29-116.52c0,55.67-4.75,92.51-8.31,116.53c-28.07-20.75-76.6-55.38-145.92-124.71
		c69.32,69.32,103.95,117.85,124.71,145.92c-24.02,3.56-60.85,8.3-116.52,8.3c55.67,0,92.5,4.74,116.52,8.3
		c-20.75,28.07-55.39,76.6-124.7,145.91c69.32-69.32,117.84-103.95,145.91-124.7c3.56,24.02,8.3,60.86,8.3,116.53
		c0-55.68,4.75-92.52,8.3-116.54c28.07,20.75,76.59,55.38,145.91,124.71c-69.31-69.32-103.94-117.84-124.69-145.91
		c24.02-3.56,60.85-8.3,116.52-8.3c-55.67,0-92.51-4.74-116.53-8.3c20.75-28.07,55.38-76.6,124.7-145.92
		C757.51,1546.44,708.99,1581.08,680.92,1601.83z"/>
	<path d="M1568.09,1105.2c-3.55-24.02-8.3-60.85-8.29-116.52c0,55.67-4.75,92.51-8.31,116.53c-28.07-20.75-76.6-55.38-145.92-124.71
		c69.32,69.32,103.95,117.85,124.71,145.92c-24.02,3.56-60.85,8.3-116.52,8.3c55.67,0,92.5,4.74,116.52,8.3
		c-20.75,28.07-55.39,76.6-124.7,145.91c69.32-69.32,117.84-103.95,145.91-124.7c3.56,24.02,8.3,60.86,8.3,116.53
		c0-55.68,4.75-92.52,8.3-116.54c28.07,20.75,76.59,55.38,145.91,124.71c-69.31-69.32-103.94-117.84-124.69-145.91
		c24.02-3.56,60.85-8.3,116.52-8.3c-55.67,0-92.51-4.74-116.53-8.3c20.75-28.07,55.38-76.6,124.7-145.92
		C1644.68,1049.82,1596.16,1084.45,1568.09,1105.2z"/>
	<path d="M1115.84,366.7c-1.91-12.89-4.45-32.66-4.45-62.55c0,29.88-2.55,49.66-4.46,62.55c-15.07-11.14-41.12-29.73-78.33-66.94
		c37.21,37.21,55.8,63.26,66.94,78.33c-12.89,1.91-32.66,4.46-62.55,4.46c29.88,0,49.65,2.55,62.55,4.46
		c-11.14,15.07-29.73,41.12-66.94,78.32c37.21-37.21,63.26-55.8,78.32-66.94c1.91,12.89,4.46,32.67,4.46,62.55
		c0-29.89,2.55-49.66,4.46-62.56c15.07,11.14,41.11,29.73,78.32,66.94c-37.21-37.21-55.8-63.26-66.93-78.32
		c12.89-1.91,32.67-4.46,62.55-4.46c-29.88,0-49.66-2.55-62.55-4.46c11.14-15.07,29.73-41.12,66.94-78.33
		C1156.95,336.97,1130.9,355.56,1115.84,366.7z"/>
	<path d="M344.26,681.59c2.28,15.37,5.31,38.95,5.31,74.57c0-35.64,3.04-59.21,5.32-74.59c17.96,13.28,49.02,35.44,93.39,79.82
		c-44.36-44.37-66.53-75.42-79.81-93.39c15.37-2.28,38.95-5.31,74.57-5.31c-35.62,0-59.2-3.03-74.57-5.31
		c13.28-17.97,35.45-49.02,79.8-93.38c-44.37,44.37-75.43,66.54-93.39,79.82c-2.28-15.37-5.31-38.95-5.31-74.58
		c0,35.63-3.04,59.2-5.32,74.58c-17.97-13.28-49.02-35.44-93.39-79.81c44.36,44.36,66.53,75.42,79.81,93.38
		c-15.37,2.28-38.94,5.31-74.56,5.31c35.63,0,59.2,3.04,74.57,5.31c-13.28,17.97-35.45,49.02-79.81,93.39
		C295.24,717.04,326.29,694.87,344.26,681.59z"/>
	<path d="M1458.92,911.22c-204.96,0-340.68-17.46-429.16-30.56c66.5-89.98,172.21-237.34,366.08-441.72l-0.01-0.01l3.21-3.37
		c0.67-0.7,1.31-1.39,1.98-2.09c0,0,0,0,0.01,0.01l4.99-5.24c-0.01-0.01-0.01-0.01-0.02-0.02c1.53-1.6,3.11-3.23,4.64-4.84
		l3.44-3.61l0.01,0.01c23.72-24.75,48.56-50.2,74.94-76.58c-27.86,27.87-54.71,54.04-80.76,78.96l0,0.02l-1.85,1.76
		c-0.75,0.72-1.52,1.46-2.27,2.18c0,0-0.01-0.01-0.01-0.01l-5.53,5.26c0,0,0,0,0.01,0c-0.82,0.78-1.62,1.53-2.44,2.31l-6.14,5.83
		l-0.02-0.01c-202.68,191.92-348.95,296.86-438.45,363.01c-13.1-88.47-30.56-224.2-30.56-429.18
		c-0.01,204.98-17.49,340.71-30.59,429.19C786.95,726.02,607.8,598.02,352.96,343.18C607.77,598,735.77,777.15,812.25,880.65
		c-88.47,13.1-224.2,30.57-429.16,30.58c204.97,0,340.69,17.47,429.17,30.57c-76.49,103.5-204.48,282.65-459.3,537.48
		c254.83-254.84,433.98-382.83,537.47-459.32c13.1,88.47,30.57,224.2,30.57,429.18c0-204.98,17.47-340.71,30.57-429.18
		c103.49,76.48,282.64,204.48,537.47,459.32c-254.81-254.82-382.8-433.98-459.29-537.48
		C1118.24,928.69,1253.96,911.22,1458.92,911.22z"/>
</g>
</svg>
