<?xml version="1.0" encoding="utf-8"?>
<!-- Generator: Adobe Illustrator 24.1.1, SVG Export Plug-In . SVG Version: 6.00 Build 0)  -->
<svg version="1.1" id="katman_1" xmlns="http://www.w3.org/2000/svg" xmlns:xlink="http://www.w3.org/1999/xlink" x="0px" y="0px"
	 viewBox="0 0 2000 2000" style="enable-background:new 0 0 2000 2000;" xml:space="preserve">
<g>
	<ellipse transform="matrix(0.7071 -0.7071 0.7071 0.7071 -149.689 1154.8879)" cx="1319.23" cy="758.13" rx="470.14" ry="470.15"/>
	<ellipse transform="matrix(0.7071 -0.7071 0.7071 0.7071 -557.1367 795.4706)" cx="681.65" cy="1070.26" rx="470.15" ry="470.15"/>
	<path d="M816.24,1462.71c266.9,36.3,296.32,65.73,332.62,332.61c36.3-266.88,65.71-296.31,332.61-332.61
		c-266.9-36.3-296.31-65.73-332.61-332.61C1112.56,1396.98,1083.14,1426.41,816.24,1462.71z"/>
	<path d="M681.67,472.24c179.93,24.47,199.77,44.31,224.24,224.23c24.48-179.92,44.31-199.76,224.24-224.23
		C950.22,447.77,930.39,427.93,905.91,248C881.43,427.93,861.6,447.77,681.67,472.24z"/>
	<path d="M319.23,603.05c80.88,11,89.8,19.92,100.79,100.79c11-80.87,19.92-89.78,100.79-100.79
		c-80.87-11-89.79-19.91-100.79-100.78C409.02,583.14,400.1,592.05,319.23,603.05z"/>
	<path d="M1496.58,1182.39c80.88,11,89.8,19.92,100.8,100.79c11-80.87,19.9-89.79,100.77-100.79
		c-80.87-11-89.78-19.92-100.77-100.79C1586.38,1162.47,1577.45,1171.39,1496.58,1182.39z"/>
</g>
</svg>
