<?xml version="1.0" encoding="utf-8"?>
<!-- Generator: Adobe Illustrator 24.1.1, SVG Export Plug-In . SVG Version: 6.00 Build 0)  -->
<svg version="1.1" id="katman_1" xmlns="http://www.w3.org/2000/svg" xmlns:xlink="http://www.w3.org/1999/xlink" x="0px" y="0px"
	 viewBox="0 0 2000 2000" style="enable-background:new 0 0 2000 2000;" xml:space="preserve">
<g>
	<g>
		<g>
			<path d="M1145.74,988.94l160.4-209.87l-209.86,160.4c-9.93-16.53-16.66-35.21-19.34-55.23l-61.12-457.46l-61.12,457.46
				c-2.67,20.02-9.4,38.7-19.33,55.23l-209.86-160.4l160.4,209.87c-16.52,9.93-35.21,16.66-55.22,19.34l-457.47,61.12l457.47,61.12
				c20.01,2.67,38.7,9.4,55.22,19.33l-160.4,209.86l209.86-160.4c9.93,16.52,16.66,35.21,19.33,55.22l61.12,457.47l61.12-457.47
				c2.68-20.01,9.41-38.7,19.34-55.22l209.86,160.4l-160.4-209.86c16.53-9.93,35.21-16.66,55.23-19.33l457.46-61.12l-457.46-61.12
				C1180.95,1005.6,1162.27,998.87,1145.74,988.94z"/>
		</g>
	</g>
	<g>
		<g>
			<path d="M342.44,1424.63l149,19.91c6.52,0.87,12.6,3.07,17.98,6.3l-52.24,68.35l68.35-52.24c3.24,5.38,5.43,11.47,6.3,17.98
				l19.91,149l19.91-149c0.87-6.52,3.07-12.6,6.3-17.98l68.35,52.24l-52.24-68.35c5.38-3.23,11.47-5.43,17.98-6.3l149-19.91
				l-149-19.9c-6.52-0.87-12.6-3.07-17.98-6.3l52.24-68.35l-68.35,52.24c-3.23-5.38-5.43-11.47-6.3-17.99l-19.91-149l-19.91,149
				c-0.87,6.52-3.06,12.6-6.3,17.99l-68.35-52.24l52.24,68.35c-5.38,3.23-11.47,5.43-17.98,6.3L342.44,1424.63z"/>
		</g>
	</g>
	<g>
		<g>
			<path d="M1577.73,868.91c2.6-1.56,5.5-2.68,8.65-3.1l71.99-9.62l-71.99-9.62c-3.15-0.42-6.05-1.54-8.65-3.1l25.2-32.97
				l-32.97,25.2c-1.56-2.6-2.68-5.5-3.1-8.65l-9.62-71.99l-9.62,71.99c-0.42,3.15-1.54,6.05-3.1,8.65l-32.97-25.2l25.2,32.97
				c-2.6,1.56-5.5,2.68-8.65,3.1l-71.99,9.62l71.99,9.62c3.15,0.42,6.05,1.54,8.65,3.1l-25.2,32.97l32.97-25.19
				c1.56,2.6,2.68,5.5,3.1,8.64l9.62,71.99l9.62-71.99c0.42-3.15,1.54-6.05,3.1-8.64l32.97,25.19L1577.73,868.91z"/>
		</g>
	</g>
	<g>
		<g>
			<path d="M1405.51,428.77l-100.7-13.45c-4.41-0.59-8.46-2.15-12.1-4.34l35.25-46.12l-46.12,35.25c-2.18-3.63-3.75-7.69-4.34-12.1
				l-13.45-100.7l-13.45,100.7c-0.59,4.41-2.15,8.46-4.34,12.1l-46.12-35.25l35.24,46.12c-3.63,2.18-7.69,3.75-12.09,4.34
				l-100.7,13.45l100.7,13.46c4.4,0.58,8.46,2.15,12.09,4.34l-35.24,46.11l46.12-35.24c2.18,3.63,3.75,7.69,4.34,12.1l13.45,100.7
				l13.45-100.7c0.59-4.41,2.15-8.46,4.34-12.1l46.12,35.24l-35.25-46.11c3.64-2.19,7.69-3.75,12.1-4.34L1405.51,428.77z"/>
		</g>
	</g>
	<g>
		<g>
			<path d="M1508.39,1493.45l-92.89-12.41c-4.06-0.54-7.8-1.99-11.16-4l32.51-42.54l-42.54,32.51c-2.01-3.36-3.46-7.09-4-11.16
				l-12.41-92.89l-12.41,92.89c-0.54,4.06-1.99,7.8-4,11.16l-42.54-32.51l32.51,42.54c-3.36,2.02-7.09,3.46-11.16,4l-92.89,12.41
				l92.89,12.41c4.06,0.54,7.8,1.99,11.16,4l-32.51,42.54l42.54-32.51c2.02,3.35,3.46,7.09,4,11.16l12.41,92.89l12.41-92.89
				c0.54-4.06,1.99-7.8,4-11.16l42.54,32.51l-32.51-42.54c3.35-2.01,7.09-3.46,11.16-4L1508.39,1493.45z"/>
		</g>
	</g>
	<g>
		<g>
			<path d="M402.58,661.65l125.4,16.75c5.49,0.73,10.6,2.58,15.13,5.3l-43.96,57.52l57.52-43.96c2.72,4.53,4.57,9.65,5.3,15.13
				l16.75,125.4l16.75-125.4c0.73-5.49,2.58-10.61,5.3-15.13l57.52,43.96l-43.96-57.52c4.53-2.72,9.65-4.57,15.13-5.3l125.4-16.75
				l-125.4-16.75c-5.49-0.73-10.61-2.58-15.13-5.3l43.96-57.52l-57.52,43.96c-2.72-4.53-4.57-9.65-5.3-15.13l-16.75-125.4
				l-16.75,125.4c-0.73,5.49-2.58,10.6-5.3,15.13l-57.52-43.96l43.96,57.52c-4.53,2.72-9.65,4.57-15.13,5.3L402.58,661.65z"/>
		</g>
	</g>
</g>
</svg>
