<?xml version="1.0" encoding="utf-8"?>
<!-- Generator: Adobe Illustrator 24.1.1, SVG Export Plug-In . SVG Version: 6.00 Build 0)  -->
<svg version="1.1" id="katman_1" xmlns="http://www.w3.org/2000/svg" xmlns:xlink="http://www.w3.org/1999/xlink" x="0px" y="0px"
	 viewBox="0 0 2000 2000" style="enable-background:new 0 0 2000 2000;" xml:space="preserve">
<g>
	<polygon points="1066.27,1032.39 1528.28,1501.14 1105.34,982.57 1472.15,951.2 1114.29,922.95 1361.18,662.11 1066.8,884.31 
		1037.79,516.84 1007.55,870.44 508.26,368.3 962.94,922.21 600.54,951.2 959.66,982.32 713.45,1245.33 1005.94,1021 
		1037.79,1388.45 	"/>
	<polygon points="1394.44,504.39 1570.5,683.02 1409.33,485.41 1549.11,473.45 1412.74,462.68 1506.82,363.28 1394.64,447.96 
		1383.59,307.92 1372.06,442.67 1181.79,251.32 1355.06,462.4 1216.96,473.45 1353.81,485.31 1259.98,585.53 1371.45,500.05 
		1383.59,640.08 	"/>
	<polygon points="811.44,1569.37 987.5,1748 826.33,1550.38 966.12,1538.43 829.74,1527.66 923.83,1428.26 811.64,1512.94 
		800.59,1372.9 789.06,1507.65 598.8,1316.29 772.06,1527.38 633.96,1538.43 770.82,1550.29 676.99,1650.51 788.45,1565.03 
		800.59,1705.05 	"/>
	<polygon points="379.52,711.13 509.63,843.14 390.52,697.1 493.82,688.27 393.04,680.31 462.57,606.86 379.67,669.43 371.5,565.95 
		362.99,665.53 222.38,524.12 350.42,680.11 248.37,688.27 349.5,697.03 280.16,771.1 362.53,707.93 371.5,811.4 	"/>
</g>
</svg>
