<?xml version="1.0" encoding="utf-8"?>
<!-- Generator: Adobe Illustrator 24.1.1, SVG Export Plug-In . SVG Version: 6.00 Build 0)  -->
<svg version="1.1" id="katman_1" xmlns="http://www.w3.org/2000/svg" xmlns:xlink="http://www.w3.org/1999/xlink" x="0px" y="0px"
	 viewBox="0 0 2000 2000" style="enable-background:new 0 0 2000 2000;" xml:space="preserve">
<g>
	<g>
		<path d="M1037.09,1654.19l-14.06-103.37c-29.01-213.3-54.88-326.88-123.42-395.42c-68.55-68.55-182.13-94.42-395.43-123.43
			l-103.39-14.06l103.39-14.06c213.3-29.01,326.88-54.88,395.43-123.43c68.54-68.54,94.41-182.12,123.42-395.42l14.06-103.38
			l14.06,103.38c29.02,213.3,54.89,326.87,123.43,395.42c68.55,68.55,182.13,94.42,395.43,123.43l103.39,14.06l-103.39,14.06
			c-213.3,29.01-326.88,54.88-395.43,123.43c-68.54,68.54-94.42,182.12-123.43,395.43L1037.09,1654.19z M604.08,1017.9
			c159.48,25.54,252.95,54.77,315.6,117.42c62.65,62.65,91.88,156.11,117.42,315.6c25.55-159.5,54.78-252.96,117.42-315.6
			c62.65-62.65,156.12-91.88,315.59-117.42c-159.48-25.54-252.95-54.77-315.59-117.42c-62.65-62.65-91.88-156.1-117.42-315.6
			c-25.54,159.5-54.77,252.95-117.42,315.6C857.03,963.13,763.55,992.36,604.08,1017.9z"/>
	</g>
	<g>
		<path d="M1483.07,856.87l-6.83-50.25c-14.1-103.68-26.67-158.88-59.99-192.2c-33.32-33.32-88.53-45.89-192.21-59.99l-50.25-6.83
			l50.25-6.83c103.68-14.1,158.89-26.68,192.21-59.99c33.32-33.32,45.89-88.52,59.99-192.2l6.83-50.25l6.84,50.25
			c14.1,103.68,26.68,158.88,60,192.2c33.32,33.32,88.52,45.89,192.2,59.99l50.25,6.83l-50.25,6.83
			c-103.68,14.1-158.88,26.68-192.2,59.99c-33.32,33.32-45.89,88.52-60,192.2L1483.07,856.87z M1272.6,547.59
			c77.52,12.41,122.95,26.62,153.4,57.07c30.45,30.45,44.66,75.88,57.07,153.4c12.42-77.53,26.63-122.95,57.08-153.4
			c30.45-30.45,75.88-44.66,153.4-57.08c-77.52-12.41-122.95-26.62-153.4-57.07c-30.45-30.45-44.66-75.88-57.08-153.4
			c-12.42,77.53-26.62,122.95-57.07,153.4C1395.55,520.97,1350.12,535.18,1272.6,547.59z"/>
	</g>
	<g>
		<path d="M493.8,1761l-6.83-50.25c-14.1-103.68-26.67-158.88-59.99-192.2c-33.32-33.32-88.53-45.89-192.21-59.99l-50.25-6.83
			l50.25-6.83c103.68-14.1,158.89-26.68,192.21-59.99c33.32-33.32,45.89-88.52,59.99-192.2l6.83-50.25l6.84,50.25
			c14.1,103.68,26.68,158.88,60,192.2c33.32,33.32,88.52,45.89,192.2,59.99l50.25,6.83l-50.25,6.83
			c-103.68,14.1-158.88,26.68-192.2,59.99c-33.32,33.32-45.89,88.52-60,192.2L493.8,1761z M283.33,1451.72
			c77.52,12.41,122.95,26.62,153.4,57.07c30.45,30.45,44.66,75.88,57.07,153.4c12.42-77.53,26.63-122.95,57.08-153.4
			c30.45-30.45,75.88-44.66,153.4-57.08c-77.52-12.41-122.95-26.62-153.4-57.07c-30.45-30.45-44.66-75.88-57.08-153.4
			c-12.42,77.53-26.62,122.95-57.07,153.4C406.28,1425.1,360.84,1439.31,283.33,1451.72z"/>
	</g>
	<g>
		<path d="M1385.77,1517.44l-3.24-23.85c-6.69-49.21-12.66-75.42-28.48-91.23c-15.82-15.82-42.02-21.78-91.24-28.48l-23.85-3.24
			l23.85-3.24c49.21-6.69,75.42-12.66,91.24-28.48c15.81-15.81,21.78-42.02,28.48-91.23l3.24-23.85l3.24,23.85
			c6.69,49.21,12.66,75.42,28.48,91.23c15.82,15.82,42.02,21.78,91.23,28.48l23.85,3.24l-23.85,3.24
			c-49.21,6.69-75.42,12.66-91.23,28.48c-15.81,15.81-21.78,42.02-28.48,91.23L1385.77,1517.44z M1285.86,1370.64
			c36.8,5.89,58.36,12.64,72.82,27.09c14.45,14.45,21.2,36.02,27.09,72.82c5.89-36.8,12.64-58.36,27.09-72.82
			c14.45-14.45,36.02-21.2,72.82-27.09c-36.8-5.89-58.36-12.64-72.82-27.09c-14.45-14.45-21.2-36.02-27.09-72.82
			c-5.89,36.8-12.64,58.36-27.09,72.82C1344.23,1358,1322.66,1364.74,1285.86,1370.64z"/>
	</g>
	<g>
		<path d="M708.68,901.16l-4.33-31.8c-8.92-65.62-16.88-100.57-37.97-121.65c-21.09-21.09-56.03-29.05-121.66-37.97l-31.81-4.33
			l31.81-4.33c65.62-8.93,100.57-16.88,121.66-37.97c21.09-21.09,29.05-56.03,37.97-121.65l4.33-31.8l4.33,31.8
			c8.93,65.62,16.89,100.56,37.97,121.65c21.09,21.09,56.03,29.05,121.66,37.97l31.81,4.33l-31.81,4.33
			c-65.62,8.93-100.57,16.88-121.66,37.97c-21.09,21.09-29.05,56.03-37.98,121.66L708.68,901.16z M575.47,705.41
			c49.06,7.86,77.82,16.85,97.09,36.12c19.27,19.27,28.27,48.03,36.12,97.1c7.86-49.07,16.85-77.82,36.13-97.1
			c19.27-19.27,48.03-28.27,97.09-36.13c-49.06-7.86-77.82-16.85-97.09-36.12c-19.27-19.27-28.27-48.03-36.13-97.1
			c-7.86,49.07-16.85,77.82-36.12,97.1C653.29,688.55,624.53,697.55,575.47,705.41z"/>
	</g>
</g>
</svg>
