<?xml version="1.0" encoding="utf-8"?>
<!-- Generator: Adobe Illustrator 24.1.1, SVG Export Plug-In . SVG Version: 6.00 Build 0)  -->
<svg version="1.1" id="katman_1" xmlns="http://www.w3.org/2000/svg" xmlns:xlink="http://www.w3.org/1999/xlink" x="0px" y="0px"
	 viewBox="0 0 2000 2000" style="enable-background:new 0 0 2000 2000;" xml:space="preserve">
<g>
	<g>
		<g>
			<path d="M939.94,1719.12l22.18-396.03c8.55-152.73,130.48-274.66,283.22-283.22l396.03-22.18l-396.03-22.18
				c-152.73-8.55-274.66-130.48-283.22-283.22l-22.18-396.03L917.76,712.3c-8.55,152.73-130.48,274.66-283.22,283.22l-396.03,22.18
				l396.03,22.18c152.73,8.55,274.66,130.48,283.22,283.22L939.94,1719.12z"/>
		</g>
	</g>
	<g>
		<g>
			<path d="M1529.14,1612.15l7.37-131.68c2.84-50.78,43.39-91.33,94.17-94.17l131.68-7.37l-131.68-7.37
				c-50.78-2.84-91.33-43.39-94.17-94.17l-7.37-131.68l-7.37,131.68c-2.84,50.78-43.39,91.33-94.17,94.17l-131.68,7.37l131.68,7.37
				c50.78,2.84,91.33,43.39,94.17,94.17L1529.14,1612.15z"/>
		</g>
	</g>
	<g>
		<g>
			<path d="M720.77,453.9l3.77-67.35c1.45-25.98,22.19-46.71,48.17-48.17l67.35-3.77l-67.35-3.77
				c-25.98-1.45-46.71-22.19-48.17-48.17l-3.77-67.35L717,282.67c-1.45,25.98-22.19,46.71-48.17,48.17l-67.35,3.77l67.35,3.77
				c25.98,1.45,46.71,22.19,48.17,48.17L720.77,453.9z"/>
		</g>
	</g>
	<g>
		<g>
			<path d="M1241.55,1784l3.72-66.33c1.43-25.58,21.86-46.01,47.44-47.44l66.33-3.72l-66.33-3.71
				c-25.58-1.43-46.01-21.86-47.44-47.44l-3.72-66.33l-3.71,66.33c-1.43,25.58-21.86,46.01-47.44,47.44l-66.33,3.71l66.33,3.72
				c25.58,1.43,46.01,21.86,47.44,47.44L1241.55,1784z"/>
		</g>
	</g>
	<g>
		<g>
			<path d="M641.84,1542.01l5.16-92.08c1.99-35.51,30.34-63.86,65.85-65.85l92.08-5.16l-92.08-5.16
				c-35.51-1.99-63.86-30.34-65.85-65.85l-5.16-92.08l-5.16,92.08c-1.99,35.51-30.34,63.86-65.85,65.85l-92.08,5.16l92.08,5.16
				c35.51,1.99,63.86,30.34,65.85,65.85L641.84,1542.01z"/>
		</g>
	</g>
	<g>
		<g>
			<path d="M1213.5,889.69l5.05-92.08c1.95-35.51,29.68-63.86,64.43-65.85l90.1-5.16l-90.1-5.16
				c-34.75-1.99-62.49-30.34-64.43-65.85l-5.05-92.08l-5.05,92.08c-1.95,35.51-29.68,63.86-64.43,65.85l-90.1,5.16l90.1,5.16
				c34.75,1.99,62.49,30.34,64.43,65.85L1213.5,889.69z"/>
		</g>
	</g>
	<g>
		<g>
			<path d="M501.55,942.29l4.39-80.2c1.69-30.93,25.85-55.62,56.12-57.35l78.47-4.49l-78.47-4.49
				c-30.26-1.73-54.42-26.42-56.12-57.35l-4.39-80.2l-4.39,80.2c-1.69,30.93-25.85,55.62-56.12,57.35l-78.47,4.49l78.47,4.49
				c30.26,1.73,54.42,26.42,56.12,57.35L501.55,942.29z"/>
		</g>
	</g>
</g>
</svg>
