<?xml version="1.0" encoding="utf-8"?>
<!-- Generator: Adobe Illustrator 24.1.1, SVG Export Plug-In . SVG Version: 6.00 Build 0)  -->
<svg version="1.1" id="katman_1" xmlns="http://www.w3.org/2000/svg" xmlns:xlink="http://www.w3.org/1999/xlink" x="0px" y="0px"
	 viewBox="0 0 2000 2000" style="enable-background:new 0 0 2000 2000;" xml:space="preserve">
<style type="text/css">
	.st0{fill-rule:evenodd;clip-rule:evenodd;}
</style>
<g>
	<polygon class="st0" points="951.28,281.92 1040.54,812.74 681.21,416.43 990.85,851.3 494.39,647.97 964.16,908.74 428.2,940.38 
		964.53,970.33 494.59,1233.3 991.18,1028.97 681.74,1466.91 1039.7,1068.54 951.28,1598.65 1102.11,1082.63 1253.14,1599.67 
		1165.1,1068.86 1522.86,1467.55 1214.26,1029.67 1710.01,1233.49 1240.58,970.33 1778.63,940.52 1240.09,908.57 1709.8,647.45 
		1213.77,851.61 1522.16,413.52 1165.1,811.54 1252.47,281.61 1102.11,796.76 	"/>
	<polygon class="st0" points="1655.3,383.58 1670.59,474.49 1609.05,406.62 1662.08,481.1 1577.05,446.27 1657.51,490.94 
		1565.71,496.35 1657.57,501.48 1577.08,546.52 1662.13,511.53 1609.14,586.53 1670.44,518.3 1655.3,609.1 1681.13,520.72 
		1707,609.27 1691.92,518.36 1753.19,586.64 1700.34,511.65 1785.25,546.55 1704.85,501.48 1797,496.38 1704.77,490.91 
		1785.21,446.18 1700.26,481.15 1753.07,406.12 1691.92,474.29 1706.89,383.53 1681.13,471.76 	"/>
	<polygon class="st0" points="271.16,974.47 288.78,1079.28 217.83,1001.03 278.97,1086.89 180.95,1046.75 273.7,1098.23 
		167.88,1104.48 273.77,1110.39 180.99,1162.32 279.04,1121.97 217.94,1208.44 288.62,1129.78 271.16,1234.45 300.94,1132.57 
		330.76,1234.66 313.38,1129.85 384.02,1208.57 323.08,1122.11 420.97,1162.35 328.28,1110.39 434.52,1104.51 328.18,1098.2 
		420.93,1046.64 322.99,1086.95 383.88,1000.45 313.38,1079.04 330.63,974.41 300.94,1076.12 	"/>
	<polygon class="st0" points="1418.75,1535.14 1431.12,1608.68 1381.33,1553.78 1424.23,1614.03 1355.45,1585.86 1420.53,1621.98 
		1346.28,1626.37 1420.59,1630.52 1355.48,1666.95 1424.28,1638.64 1381.41,1699.32 1431,1644.12 1418.75,1717.57 1439.65,1646.08 
		1460.57,1717.71 1448.38,1644.17 1497.94,1699.41 1455.19,1638.74 1523.87,1666.98 1458.83,1630.52 1533.38,1626.39 
		1458.77,1621.96 1523.84,1585.78 1455.12,1614.07 1497.84,1553.37 1448.38,1608.52 1460.48,1535.1 1439.65,1606.47 	"/>
</g>
</svg>
