<?xml version="1.0" encoding="utf-8"?>
<!-- Generator: Adobe Illustrator 24.1.1, SVG Export Plug-In . SVG Version: 6.00 Build 0)  -->
<svg version="1.1" id="katman_1" xmlns="http://www.w3.org/2000/svg" xmlns:xlink="http://www.w3.org/1999/xlink" x="0px" y="0px"
	 viewBox="0 0 2000 2000" style="enable-background:new 0 0 2000 2000;" xml:space="preserve">
<g>
	<path d="M1350.42,684.25l-166.21,178.86c-90.82,97.73-90.82,248.97,0,346.7l166.21,178.86l-178.86-166.21
		c-97.73-90.82-248.97-90.82-346.7,0l-178.86,166.21l166.21-178.86c90.82-97.73,90.82-248.97,0-346.7L646.01,684.25l178.86,166.21
		c97.73,90.82,248.97,90.82,346.7,0L1350.42,684.25z"/>
	<path d="M579.34,1251.11l-57.95,62.36c-31.66,34.07-31.66,86.81,0,120.89l57.95,62.36l-62.36-57.95
		c-34.07-31.67-86.81-31.67-120.89,0l-62.36,57.95l57.95-62.36c31.66-34.07,31.66-86.81,0-120.89l-57.95-62.36l62.36,57.95
		c34.07,31.66,86.81,31.66,120.89,0L579.34,1251.11z"/>
	<path d="M1183.76,1373.92l-38.78,41.74c-21.19,22.8-21.19,58.1,0,80.9l38.78,41.74l-41.74-38.78c-22.8-21.19-58.1-21.19-80.9,0
		l-41.74,38.78l38.78-41.74c21.19-22.8,21.19-58.1,0-80.9l-38.78-41.74l41.74,38.78c22.8,21.19,58.1,21.19,80.9,0L1183.76,1373.92z"
		/>
	<path d="M644.77,827.6l-38.78,41.74c-21.19,22.8-21.19,58.1,0,80.9l38.78,41.74l-41.74-38.78c-22.8-21.19-58.1-21.19-80.9,0
		l-41.74,38.78l38.78-41.74c21.19-22.8,21.19-58.1,0-80.9L480.4,827.6l41.74,38.78c22.8,21.19,58.1,21.19,80.9,0L644.77,827.6z"/>
	<path d="M1499.08,361.95l-38.78,41.74c-21.19,22.8-21.19,58.1,0,80.9l38.78,41.74l-41.74-38.78c-22.8-21.19-58.1-21.19-80.9,0
		l-41.74,38.78l38.78-41.74c21.19-22.8,21.19-58.1,0-80.9l-38.78-41.74l41.74,38.78c22.8,21.19,58.1,21.19,80.9,0L1499.08,361.95z"
		/>
	<path d="M1039.31,586.92l-38.78,41.74c-21.19,22.8-21.19,58.1,0,80.9l38.78,41.74l-41.74-38.78c-22.8-21.19-58.1-21.19-80.9,0
		l-41.74,38.78l38.78-41.74c21.19-22.8,21.19-58.1,0-80.9l-38.78-41.74l41.74,38.78c22.8,21.19,58.1,21.19,80.9,0L1039.31,586.92z"
		/>
	<path d="M1597.18,751.3l-62.29,67.03c-34.03,36.62-34.03,93.31,0,129.93l62.29,67.03L1530.15,953
		c-36.62-34.03-93.31-34.03-129.93,0l-67.03,62.29l62.29-67.03c34.03-36.62,34.03-93.31,0-129.93l-62.29-67.03l67.03,62.29
		c36.62,34.03,93.31,34.03,129.93,0L1597.18,751.3z"/>
</g>
</svg>
