<?xml version="1.0" encoding="utf-8"?>
<!-- Generator: Adobe Illustrator 24.1.1, SVG Export Plug-In . SVG Version: 6.00 Build 0)  -->
<svg version="1.1" id="katman_1" xmlns="http://www.w3.org/2000/svg" xmlns:xlink="http://www.w3.org/1999/xlink" x="0px" y="0px"
	 viewBox="0 0 2000 2000" style="enable-background:new 0 0 2000 2000;" xml:space="preserve">
<g>
	<path d="M1115.99,386.76l128.68,17.19c2.54,0.34,4.99,1.01,7.33,1.99l-49.49,64.75l64.75-49.48c0.98,2.33,1.65,4.78,1.99,7.33
		l17.19,128.68l17.19-128.68c0.34-2.54,1.01-5,1.99-7.33l64.75,49.48l-49.48-64.75c2.33-0.98,4.78-1.65,7.33-1.99l128.68-17.19
		l-128.68-17.19c-2.54-0.34-5-1.01-7.33-1.99l49.49-64.75l-64.75,49.49c-0.98-2.33-1.65-4.78-1.99-7.33l-17.19-128.68l-17.19,128.68
		c-0.34,2.54-1.01,4.99-1.99,7.33l-64.75-49.49l49.49,64.75c-2.33,0.98-4.78,1.65-7.33,1.99L1115.99,386.76z M1259.31,371.9
		l3.44-2.07l-21.89-28.64l28.64,21.89l2.07-3.44c2.53-4.21,4.14-8.82,4.79-13.69l10.07-75.4l10.07,75.4
		c0.65,4.88,2.26,9.48,4.79,13.69l2.07,3.44l28.64-21.89l-21.89,28.64l3.44,2.07c4.21,2.53,8.81,4.14,13.69,4.79l75.4,10.07
		l-75.39,10.07c-4.87,0.65-9.48,2.26-13.69,4.79l-3.44,2.07l21.89,28.65l-28.64-21.89l-2.07,3.44c-2.53,4.21-4.14,8.81-4.79,13.69
		l-10.07,75.4l-10.07-75.4c-0.65-4.88-2.26-9.48-4.79-13.69l-2.07-3.44l-28.64,21.89l21.89-28.65l-3.44-2.07
		c-4.21-2.53-8.82-4.14-13.69-4.79l-75.4-10.07l75.4-10.07C1250.49,376.04,1255.1,374.43,1259.31,371.9z"/>
	<path d="M1583.11,1558.17l-128.68-17.19c-2.54-0.34-5-1.01-7.33-1.99l49.49-64.75l-64.75,49.49c-0.98-2.33-1.65-4.78-1.99-7.33
		l-17.19-128.68l-17.19,128.68c-0.34,2.54-1.01,4.99-1.99,7.33l-64.75-49.49l49.49,64.75c-2.33,0.98-4.78,1.65-7.33,1.99
		l-128.68,17.19l128.68,17.19c2.54,0.34,4.99,1.01,7.33,1.99l-49.49,64.75l64.75-49.48c0.98,2.33,1.65,4.78,1.99,7.33l17.19,128.68
		l17.19-128.68c0.34-2.54,1.01-5,1.99-7.33l64.75,49.48l-49.48-64.75c2.33-0.98,4.78-1.65,7.33-1.99L1583.11,1558.17z
		 M1439.79,1573.04l-3.44,2.07l21.89,28.65l-28.64-21.89l-2.07,3.44c-2.53,4.21-4.14,8.81-4.79,13.69l-10.07,75.4l-10.07-75.4
		c-0.65-4.88-2.26-9.48-4.79-13.69l-2.07-3.44l-28.64,21.89l21.89-28.65l-3.44-2.07c-4.21-2.53-8.82-4.14-13.69-4.79l-75.4-10.07
		l75.4-10.07c4.88-0.65,9.48-2.26,13.69-4.79l3.44-2.07l-21.89-28.64l28.64,21.89l2.07-3.44c2.53-4.21,4.14-8.82,4.79-13.69
		l10.07-75.4l10.07,75.4c0.65,4.88,2.26,9.48,4.79,13.69l2.07,3.44l28.64-21.89l-21.89,28.64l3.44,2.07
		c4.21,2.53,8.81,4.14,13.69,4.79l75.4,10.07l-75.39,10.07C1448.61,1568.9,1444,1570.51,1439.79,1573.04z"/>
	<path d="M733.69,1482.44l-173.54-23.18c-3.43-0.46-6.74-1.36-9.88-2.69l66.74-87.32l-87.32,66.74c-1.33-3.14-2.23-6.45-2.69-9.88
		l-23.18-173.54l-23.19,173.54c-0.46,3.43-1.36,6.74-2.68,9.88l-87.32-66.74l66.74,87.32c-3.14,1.33-6.45,2.23-9.88,2.69
		l-173.54,23.18l173.54,23.19c3.43,0.46,6.74,1.36,9.88,2.68l-66.74,87.32l87.32-66.74c1.33,3.14,2.23,6.45,2.68,9.88l23.18,173.54
		L527,1538.77c0.46-3.43,1.36-6.74,2.69-9.88l87.32,66.74l-66.74-87.32c3.15-1.33,6.45-2.23,9.88-2.68L733.69,1482.44z
		 M540.4,1502.49l-4.64,2.79l29.53,38.63l-38.63-29.53l-2.79,4.64c-3.41,5.67-5.59,11.89-6.46,18.47l-13.59,101.68l-13.59-101.68
		c-0.88-6.58-3.05-12.79-6.46-18.47l-2.79-4.64l-38.63,29.53l29.53-38.63l-4.64-2.79c-5.68-3.41-11.89-5.59-18.47-6.46
		l-101.68-13.59l101.68-13.59c6.58-0.88,12.79-3.05,18.47-6.47l4.64-2.79l-29.53-38.63l38.63,29.53l2.79-4.64
		c3.41-5.68,5.59-11.89,6.46-18.46l13.59-101.68l13.59,101.68c0.88,6.58,3.05,12.79,6.46,18.46l2.79,4.64l38.63-29.53l-29.53,38.63
		l4.64,2.79c5.67,3.41,11.89,5.59,18.46,6.47l101.68,13.59l-101.68,13.58C552.29,1496.9,546.08,1499.07,540.4,1502.49z"/>
	<path d="M348.51,644.27l140.11,18.72c2.77,0.37,5.44,1.1,7.98,2.17l-53.88,70.5l70.5-53.88c1.07,2.54,1.8,5.21,2.17,7.98
		l18.72,140.11l18.72-140.11c0.37-2.77,1.1-5.44,2.17-7.98l70.5,53.88l-53.88-70.5c2.54-1.07,5.21-1.8,7.98-2.17l140.11-18.72
		l-140.11-18.72c-2.77-0.37-5.44-1.1-7.98-2.17l53.88-70.5l-70.5,53.88c-1.07-2.54-1.8-5.21-2.17-7.98l-18.72-140.11l-18.72,140.11
		c-0.37,2.77-1.1,5.44-2.17,7.98l-70.5-53.88l53.88,70.5c-2.54,1.07-5.21,1.8-7.98,2.17L348.51,644.27z M504.57,628.08l3.75-2.25
		l-23.84-31.19l31.19,23.84l2.25-3.75c2.76-4.58,4.51-9.6,5.22-14.91l10.97-82.1l10.97,82.1c0.71,5.31,2.47,10.33,5.22,14.91
		l2.25,3.75l31.19-23.84l-23.84,31.19l3.75,2.25c4.58,2.75,9.6,4.51,14.91,5.22l82.1,10.97l-82.1,10.97
		c-5.31,0.71-10.32,2.46-14.91,5.22l-3.75,2.25l23.84,31.19l-31.19-23.84l-2.25,3.75c-2.75,4.58-4.51,9.6-5.22,14.91l-10.97,82.1
		l-10.97-82.1c-0.71-5.31-2.46-10.32-5.22-14.91l-2.25-3.75l-31.19,23.84l23.84-31.19l-3.75-2.25c-4.58-2.76-9.6-4.51-14.91-5.22
		l-82.1-10.97l82.1-10.97C494.97,632.59,499.99,630.84,504.57,628.08z"/>
	<path d="M1492.23,861.39l88.6,11.84c1.75,0.23,3.44,0.69,5.05,1.37l-34.07,44.58l44.58-34.07c0.68,1.6,1.14,3.29,1.37,5.04
		l11.84,88.6l11.84-88.6c0.23-1.75,0.69-3.44,1.37-5.04l44.58,34.07l-34.07-44.58c1.61-0.68,3.29-1.14,5.05-1.37l88.6-11.84
		l-88.6-11.84c-1.75-0.23-3.44-0.69-5.05-1.37l34.07-44.58l-44.58,34.07c-0.68-1.6-1.14-3.29-1.37-5.05l-11.84-88.6l-11.84,88.6
		c-0.23,1.75-0.69,3.44-1.37,5.05l-44.58-34.07l34.07,44.58c-1.61,0.68-3.29,1.14-5.05,1.37L1492.23,861.39z M1590.91,851.15
		l2.37-1.42l-15.07-19.72l19.72,15.07l1.42-2.37c1.74-2.9,2.85-6.07,3.3-9.43l6.94-51.91l6.94,51.91c0.45,3.36,1.56,6.53,3.3,9.43
		l1.42,2.37l19.72-15.07l-15.07,19.72l2.37,1.42c2.9,1.74,6.07,2.85,9.43,3.3l51.91,6.94l-51.91,6.94c-3.36,0.45-6.53,1.56-9.43,3.3
		l-2.37,1.42l15.07,19.72l-19.72-15.07l-1.42,2.37c-1.74,2.9-2.85,6.07-3.3,9.43l-6.94,51.91l-6.94-51.91
		c-0.45-3.36-1.56-6.53-3.3-9.43l-1.42-2.37l-19.72,15.07l15.07-19.72l-2.37-1.42c-2.9-1.74-6.07-2.85-9.43-3.3l-51.91-6.94
		l51.91-6.94C1584.84,854,1588.01,852.89,1590.91,851.15z"/>
	<path d="M1153.08,1016.07l200.14-261.86l-261.86,200.14c-3.98-9.43-6.68-19.35-8.06-29.64l-69.52-520.41l-69.53,520.41
		c-1.37,10.29-4.07,20.2-8.05,29.64L674.34,754.21l200.14,261.86c-9.43,3.98-19.35,6.68-29.64,8.06l-520.41,69.52l520.42,69.53
		c10.29,1.37,20.2,4.07,29.64,8.05l-200.14,261.86l261.86-200.13c3.98,9.43,6.68,19.35,8.05,29.64l69.53,520.41l69.52-520.41
		c1.38-10.29,4.08-20.21,8.06-29.64l261.86,200.13l-200.14-261.86c9.43-3.98,19.35-6.68,29.64-8.05l520.41-69.53l-520.41-69.52
		C1172.43,1022.75,1162.51,1020.05,1153.08,1016.07z M1178.87,1134.39c-19.71,2.63-38.35,9.15-55.38,19.39l-13.92,8.36l88.55,115.85
		l-115.85-88.54l-8.37,13.91c-10.23,17.02-16.75,35.64-19.39,55.37l-40.74,304.93l-40.74-304.93c-2.63-19.72-9.15-38.35-19.39-55.38
		l-8.37-13.91l-115.85,88.54l88.55-115.85l-13.92-8.36c-17.03-10.24-35.66-16.76-55.37-19.38l-304.93-40.74l304.93-40.74
		c19.72-2.64,38.36-9.16,55.37-19.39l13.92-8.36l-88.54-115.85l115.85,88.54l8.36-13.92c10.24-17.03,16.76-35.66,19.38-55.37
		l40.74-304.93l40.74,304.93c2.64,19.72,9.16,38.36,19.39,55.37l8.36,13.92l115.85-88.54l-88.54,115.85l13.92,8.36
		c17.02,10.23,35.65,16.75,55.37,19.39l304.93,40.74L1178.87,1134.39z"/>
</g>
</svg>
