<?xml version="1.0" encoding="utf-8"?>
<!-- Generator: Adobe Illustrator 24.1.1, SVG Export Plug-In . SVG Version: 6.00 Build 0)  -->
<svg version="1.1" id="katman_1" xmlns="http://www.w3.org/2000/svg" xmlns:xlink="http://www.w3.org/1999/xlink" x="0px" y="0px"
	 viewBox="0 0 2000 2000" style="enable-background:new 0 0 2000 2000;" xml:space="preserve">
<g>
	<polygon points="984.25,1135.92 681.77,1319.63 959.46,1121.78 419.12,1091.52 964.87,1060.95 479.54,713.16 983.7,1047.66 
		799.99,745.18 997.84,1022.87 1028.1,482.53 1058.67,1028.28 1406.47,542.96 1071.95,1047.11 1374.44,863.41 1096.75,1061.26 
		1637.09,1091.52 1091.33,1122.08 1576.66,1469.88 1072.51,1135.37 1256.21,1437.85 1058.36,1160.17 1028.1,1700.51 997.54,1154.75 
		649.74,1640.07 	"/>
	<polygon points="1277.29,425.21 1398.62,512.16 1272.58,428.53 1318.51,504.15 1269.05,434.73 1261.48,569.81 1253.84,433.37 
		1166.89,554.7 1250.51,428.66 1174.89,474.59 1244.32,425.13 1109.23,417.56 1245.67,409.92 1124.34,322.97 1250.38,406.6 
		1204.45,330.98 1253.91,400.4 1261.48,265.32 1269.12,401.76 1356.07,280.42 1272.44,406.46 1348.06,360.54 1278.64,410 
		1413.73,417.56 	"/>
	<polygon points="602.73,603.35 645.78,572.68 562.02,567.99 646.61,563.25 571.39,509.34 649.53,561.2 621.06,514.31 
		651.72,557.35 656.42,473.6 661.15,558.19 715.06,482.97 663.21,561.11 710.1,532.63 667.06,563.3 750.81,567.99 666.22,572.73 
		741.44,626.64 663.3,574.79 691.77,621.68 661.1,578.63 656.42,662.39 651.68,577.79 597.77,653.02 649.62,574.88 	"/>
	<polygon points="1347.15,1634.87 1271.93,1580.96 1350.07,1632.81 1321.6,1585.92 1352.26,1628.97 1356.96,1545.21 
		1361.69,1629.81 1415.6,1554.58 1363.75,1632.72 1410.64,1604.25 1367.6,1634.92 1451.35,1639.61 1366.76,1644.35 1441.98,1698.25 
		1363.84,1646.4 1392.31,1693.29 1361.65,1650.25 1356.96,1734 1352.22,1649.41 1298.31,1724.63 1350.16,1646.49 1303.27,1674.96 
		1346.32,1644.3 1262.56,1639.61 	"/>
	<polygon points="400.53,1373.7 259.79,1272.84 405.99,1369.85 352.72,1282.13 410.09,1362.66 418.87,1205.96 427.73,1364.23 
		528.6,1223.48 431.59,1369.69 519.31,1316.41 438.78,1373.79 595.48,1382.56 437.21,1391.43 577.95,1492.29 431.75,1395.28 
		485.02,1483 427.65,1402.47 418.87,1559.17 410,1400.9 309.14,1541.65 406.15,1395.44 318.43,1448.72 398.96,1391.34 
		242.26,1382.56 	"/>
	<polygon points="1625.4,1208.36 1529.21,1139.43 1629.13,1205.73 1592.72,1145.78 1631.93,1200.81 1637.93,1093.73 
		1643.98,1201.89 1712.91,1105.71 1646.62,1205.62 1706.56,1169.21 1651.53,1208.42 1758.62,1214.42 1650.46,1220.48 
		1746.64,1289.4 1646.73,1223.11 1683.13,1283.06 1643.92,1228.02 1637.93,1335.11 1631.87,1226.95 1562.94,1323.13 
		1629.24,1223.22 1569.29,1259.63 1624.32,1220.42 1517.24,1214.42 	"/>
</g>
</svg>
