<?xml version="1.0" encoding="utf-8"?>
<!-- Generator: Adobe Illustrator 24.1.1, SVG Export Plug-In . SVG Version: 6.00 Build 0)  -->
<svg version="1.1" id="katman_1" xmlns="http://www.w3.org/2000/svg" xmlns:xlink="http://www.w3.org/1999/xlink" x="0px" y="0px"
	 viewBox="0 0 2000 2000" style="enable-background:new 0 0 2000 2000;" xml:space="preserve">
<g>
	<polygon id="XMLID_1226_" points="990.01,614.23 885.29,936.55 546.37,936.55 820.56,1135.76 715.83,1458.09 990.01,1258.88 
		1264.2,1458.09 1159.47,1135.76 1433.66,936.55 1094.74,936.55 	"/>
	<polygon id="XMLID_1_" points="1105.21,1493.87 1044.36,1545.81 976.16,1503.99 1006.76,1577.92 945.9,1629.86 1025.67,1623.61 
		1056.27,1697.53 1074.96,1619.74 1154.72,1613.48 1086.52,1571.66 	"/>
	<polygon id="XMLID_6_" points="342.33,1132.63 372.5,1213.53 304.88,1267.23 391.15,1263.54 421.32,1344.44 444.47,1261.25 
		530.74,1257.56 458.77,1209.84 481.92,1126.65 414.29,1180.35 	"/>
	<polygon id="XMLID_7_" points="1474.04,1121.34 1454.76,1180.67 1392.37,1180.67 1442.85,1217.35 1423.57,1276.68 1474.04,1240.01 
		1524.52,1276.68 1505.24,1217.35 1555.71,1180.67 1493.32,1180.67 	"/>
	<polygon id="XMLID_2_" points="1627.4,530.08 1565.76,594.69 1485.26,556.02 1527.66,634.62 1466.01,699.23 1553.86,683.19 
		1596.26,761.78 1608.15,673.28 1696,657.24 1615.5,618.58 	"/>
	<polygon id="XMLID_3_" points="1289.23,703.24 1286.43,765.57 1226.29,782.17 1284.7,804.09 1281.9,866.42 1320.8,817.64 
		1379.21,839.56 1344.84,787.49 1383.74,738.71 1323.6,755.31 	"/>
	<polygon id="XMLID_5_" points="780.58,690.34 724.58,717.84 681.12,673.07 689.96,734.83 633.96,762.34 695.43,773 704.28,834.77 
		733.43,779.6 794.9,790.27 751.44,745.5 	"/>
	<polygon id="XMLID_4_" points="1048.38,375.79 1069,466.94 988.68,514.72 1081.75,523.28 1102.37,614.43 1139.26,528.57 
		1232.33,537.12 1162.07,475.5 1198.96,389.63 1118.64,437.41 	"/>
</g>
</svg>
