<?xml version="1.0" encoding="utf-8"?>
<!-- Generator: Adobe Illustrator 24.1.1, SVG Export Plug-In . SVG Version: 6.00 Build 0)  -->
<svg version="1.1" id="katman_1" xmlns="http://www.w3.org/2000/svg" xmlns:xlink="http://www.w3.org/1999/xlink" x="0px" y="0px"
	 viewBox="0 0 2000 2000" style="enable-background:new 0 0 2000 2000;" xml:space="preserve">
<style type="text/css">
	.st0{fill-rule:evenodd;clip-rule:evenodd;fill:#231F20;}
</style>
<path class="st0" d="M1291.28,1170.53L1461.6,1706l-461.15-325.56l-459.66,325.15l170.06-535.87L258.12,834.04l565.35-5.12
	l177.38-535.6l178.2,535.47l563.71,5.53L1291.28,1170.53z M1137.14,888.42l-136.02-404.57L864.42,888.14l-429.34,3.19l345.91,256.8
	l-128.95,408.73l349.22-249.06l349.23,249.6l-128.81-408.44l345.91-257.22L1137.14,888.42z M1141.3,1121.69l78.85,255.55
	l-219.16-154.69L781.82,1377.8l78.72-256.8L646.08,960.78l268.56-0.28l85.93-257.91l85.77,258.19l268.71,0.55L1141.3,1121.69z
	 M1044.71,1016.82l-43.72-128.53l-44.42,129.09l-134.07,0.55l106.69,80.8l-38.61,129.36l111.12-77.06l108.89,76.37l-38.9-129.37
	l106.83-79.97L1044.71,1016.82z"/>
</svg>
